<svg width="20" height="20" viewBox="0 0 20 20" fill="none" xmlns="http://www.w3.org/2000/svg">
<path d="M11.225 7.10833C11.1146 6.98985 11.0545 6.83314 11.0574 6.67123C11.0602 6.50931 11.1258 6.35482 11.2403 6.24031C11.3548 6.1258 11.5093 6.06021 11.6713 6.05735C11.8332 6.05449 11.9899 6.11459 12.1084 6.22499L15.4417 9.55833C15.5587 9.67552 15.6245 9.83437 15.6245 9.99999C15.6245 10.1656 15.5587 10.3245 15.4417 10.4417L12.1084 13.775C12.0511 13.8364 11.9821 13.8857 11.9055 13.9198C11.8288 13.954 11.746 13.9723 11.6621 13.9738C11.5782 13.9753 11.4948 13.9599 11.417 13.9284C11.3392 13.897 11.2685 13.8502 11.2092 13.7909C11.1498 13.7315 11.103 13.6608 11.0716 13.583C11.0402 13.5052 11.0247 13.4218 11.0262 13.3379C11.0277 13.254 11.046 13.1712 11.0802 13.0945C11.1144 13.0179 11.1636 12.9489 11.225 12.8917L13.4917 10.625H5.41669C5.25093 10.625 5.09196 10.5591 4.97475 10.4419C4.85753 10.3247 4.79169 10.1658 4.79169 9.99999C4.79169 9.83423 4.85753 9.67526 4.97475 9.55805C5.09196 9.44084 5.25093 9.37499 5.41669 9.37499H13.4917L11.225 7.10833Z" fill="#151418"/>
</svg>
