<svg width="24" height="24" viewBox="0 0 24 24" fill="none" xmlns="http://www.w3.org/2000/svg">
<g clip-path="url(#clip0_1779_9890)">
<path d="M24 14.7629C24 13.4976 22.9706 12.4682 21.7052 12.4682H2.82008V3.08933C2.82008 2.1618 3.5747 1.40723 4.50223 1.40723H6.04386C6.30427 1.40723 6.55269 1.51901 6.72546 1.71385L7.43053 2.50925C7.38835 2.71422 7.36613 2.92645 7.36613 3.1437V4.06598C7.09325 4.16258 6.89743 4.42219 6.89743 4.72817C6.89743 5.11645 7.21221 5.43123 7.60049 5.43123H13.417C13.8053 5.43123 14.12 5.11645 14.12 4.72817C14.12 4.42219 13.9242 4.16258 13.6513 4.06598V3.1437C13.6513 1.41083 12.2416 0.00109863 10.5087 0.00109863C9.53846 0.00109863 8.66966 0.443278 8.09273 1.13655L7.77766 0.781171C7.3382 0.28537 6.70629 0.00109863 6.04381 0.00109863H4.50223C2.79936 0.00109863 1.41395 1.38646 1.41395 3.08933V12.5619C1.41395 12.5892 1.41588 12.6159 1.41888 12.6423C0.58687 12.9872 0 13.8077 0 14.7629C0 15.7163 0.584574 16.5356 1.41395 16.8816V18.1523C1.41395 20.6689 3.46132 22.7162 5.97787 22.7162H6.37969V23.2959C6.37969 23.6842 6.69447 23.999 7.08275 23.999C7.47103 23.999 7.78582 23.6842 7.78582 23.2959V22.7162H16.2141V23.2959C16.2141 23.6842 16.5289 23.999 16.9172 23.999C17.3055 23.999 17.6203 23.6842 17.6203 23.2959V22.7162H18.0221C20.5386 22.7162 22.586 20.6689 22.586 18.1523V16.8816C23.4154 16.5356 24 15.7163 24 14.7629ZM10.5087 1.40718C11.4662 1.40718 12.2452 2.18617 12.2452 3.14365V4.02506H8.77221V3.1437C8.77221 2.18617 9.55116 1.40718 10.5087 1.40718ZM18.0221 21.3101H5.97787C4.23666 21.3101 2.82008 19.8935 2.82008 18.1523V17.0577H21.1799V18.1523C21.1799 19.8935 19.7633 21.3101 18.0221 21.3101ZM21.7052 15.6516H2.29475C1.80476 15.6516 1.40613 15.2529 1.40613 14.7629C1.40613 14.273 1.80476 13.8743 2.29475 13.8743H21.7052C22.1952 13.8743 22.5939 14.273 22.5939 14.7629C22.5939 15.2529 22.1952 15.6516 21.7052 15.6516Z" fill="#5E5E5E"/>
<path d="M13.9142 10.2274C13.8543 9.93881 13.6204 9.71383 13.3282 9.6694C13.0382 9.62534 12.7429 9.77481 12.6051 10.0333C12.4672 10.2922 12.5065 10.6192 12.704 10.8367C12.9012 11.0538 13.2228 11.1267 13.4938 11.0139C13.7979 10.8874 13.9815 10.5519 13.9142 10.2274Z" fill="#5E5E5E"/>
<path d="M11.1019 10.2274C11.042 9.93876 10.8082 9.71383 10.516 9.66939C10.2261 9.62534 9.93061 9.77485 9.79286 10.0333C9.65492 10.2922 9.6942 10.6192 9.89176 10.8367C10.089 11.0539 10.4104 11.1269 10.6815 11.0139C10.9856 10.8871 11.1694 10.5522 11.1019 10.2274Z" fill="#5E5E5E"/>
<path d="M8.28969 10.2274C8.22979 9.93886 7.99586 9.71378 7.70376 9.6694C7.41382 9.62534 7.11839 9.77481 6.98064 10.0333C6.84269 10.2922 6.88197 10.6192 7.07953 10.8367C7.27667 11.0538 7.5983 11.1267 7.86931 11.0139C8.17336 10.8874 8.35705 10.5518 8.28969 10.2274Z" fill="#5E5E5E"/>
<path d="M13.9245 7.48299C13.8941 7.19047 13.6813 6.94243 13.3958 6.87063C13.1116 6.79915 12.8026 6.91731 12.6403 7.16193C12.4784 7.40594 12.4846 7.7353 12.6602 7.97078C12.8359 8.20645 13.1475 8.31017 13.4291 8.22444C13.7454 8.12826 13.9581 7.81296 13.9245 7.48299Z" fill="#5E5E5E"/>
<path d="M11.1123 7.48311C11.0819 7.19059 10.8691 6.9426 10.5835 6.87074C10.2991 6.79922 9.99072 6.91766 9.82803 7.16205C9.6653 7.40648 9.67336 7.73476 9.84791 7.97085C10.0223 8.20675 10.3362 8.31048 10.6169 8.22508C10.933 8.1289 11.1458 7.81257 11.1123 7.48311Z" fill="#5E5E5E"/>
<path d="M8.29998 7.48299C8.26966 7.19057 8.05672 6.94243 7.77123 6.87063C7.4871 6.79915 7.17808 6.91731 7.01577 7.16193C6.85336 7.40669 6.86086 7.73436 7.03564 7.97073C7.21005 8.20663 7.52394 8.31036 7.8046 8.22496C8.1207 8.12883 8.33345 7.81226 8.29998 7.48299Z" fill="#5E5E5E"/>
</g>
<defs>
<clipPath id="clip0_1779_9890">
<rect width="24" height="24" fill="white"/>
</clipPath>
</defs>
</svg>
