<svg width="16" height="16" viewBox="0 0 16 16" fill="none" xmlns="http://www.w3.org/2000/svg">
<path d="M14.8911 7.13953V3.94763C14.8911 2.99426 14.1156 2.21875 13.1624 2.21875H2.83777C1.8844 2.21875 1.10889 2.99426 1.10889 3.94763V7.13953C0.446655 7.52368 0 8.23987 0 9.05896V12.5868C0 12.8457 0.209839 13.0555 0.46875 13.0555H0.935059V13.3328C0.935059 13.5917 1.14502 13.8015 1.40381 13.8015C1.66272 13.8015 1.87256 13.5917 1.87256 13.3328V13.0555H14.1274V13.3328C14.1274 13.5917 14.3373 13.8015 14.5962 13.8015C14.855 13.8015 15.0649 13.5917 15.0649 13.3328V13.0555H15.5312C15.7902 13.0555 16 12.8457 16 12.5868V9.05896C16 8.23987 15.5533 7.52368 14.8911 7.13953ZM2.04639 3.94763C2.04639 3.51123 2.40137 3.15625 2.83777 3.15625H13.1622C13.5986 3.15625 13.9536 3.51123 13.9536 3.94763V3.96106C13.8544 3.93555 13.7502 3.922 13.6431 3.922H8.7937C8.49243 3.922 8.21582 4.02917 8 4.20752C7.78418 4.0293 7.50745 3.922 7.2063 3.922H2.35693C2.24976 3.922 2.14563 3.93555 2.04639 3.96106V3.94763ZM13.9536 5.17004V6.52991C13.9536 6.70105 13.8143 6.84045 13.6431 6.84045H8.7937C8.62244 6.84045 8.48315 6.70117 8.48315 6.52991V5.17004C8.48315 4.99878 8.62244 4.8595 8.7937 4.8595H13.6431C13.8143 4.8595 13.9536 4.99878 13.9536 5.17004ZM2.04639 5.17004C2.04639 4.99878 2.18567 4.8595 2.35693 4.8595H7.2063C7.37756 4.8595 7.51685 4.99878 7.51685 5.17004V6.52991C7.51685 6.70105 7.37756 6.84045 7.2063 6.84045H2.35693C2.18567 6.84045 2.04639 6.70117 2.04639 6.52991V5.17004ZM15.0625 12.118H0.9375V11.1237H15.0625V12.118ZM15.0625 10.1862H0.9375V9.05896C0.9375 8.35303 1.51184 7.77856 2.2179 7.77856H13.7821C14.488 7.77856 15.0625 8.35303 15.0625 9.05896V10.1862Z" fill="#5E5E5E"/>
</svg>
