<svg width="20" height="20" viewBox="0 0 20 20" fill="none" xmlns="http://www.w3.org/2000/svg">
<path d="M14.0313 3.75C14.4863 3.74962 14.9369 3.84008 15.3565 4.01609C15.7761 4.1921 16.1564 4.45011 16.475 4.775C17.1315 5.44149 17.4995 6.33947 17.4995 7.275C17.4995 8.21053 17.1315 9.10851 16.475 9.775L10 16.3313L3.52501 9.775C2.8685 9.10851 2.5005 8.21053 2.5005 7.275C2.5005 6.33947 2.8685 5.44149 3.52501 4.775C3.84382 4.45035 4.22412 4.19247 4.64371 4.01643C5.06329 3.8404 5.51375 3.74973 5.96876 3.74973C6.42378 3.74973 6.87423 3.8404 7.29382 4.01643C7.7134 4.19247 8.0937 4.45035 8.41251 4.775L10 6.4L11.5813 4.7875C11.8989 4.45874 12.2796 4.19741 12.7006 4.01915C13.1215 3.84089 13.5741 3.74935 14.0313 3.75ZM14.0313 2.5C13.4098 2.49947 12.7944 2.62304 12.2213 2.86344C11.6482 3.10384 11.1289 3.45625 10.6938 3.9L10 4.6L9.30626 3.9C8.8706 3.45705 8.35113 3.10526 7.77813 2.86512C7.20512 2.62498 6.59005 2.50131 5.96876 2.50131C5.34747 2.50131 4.7324 2.62498 4.15939 2.86512C3.58639 3.10526 3.06692 3.45705 2.63126 3.9C1.74494 4.80227 1.24832 6.01648 1.24832 7.28125C1.24832 8.54603 1.74494 9.76024 2.63126 10.6625L10 18.125L17.3688 10.6625C18.2551 9.76024 18.7517 8.54603 18.7517 7.28125C18.7517 6.01648 18.2551 4.80227 17.3688 3.9C16.933 3.4571 16.4135 3.10524 15.8406 2.8649C15.2676 2.62456 14.6526 2.50052 14.0313 2.5Z" fill="#151418"/>
</svg>
