<svg width="24" height="24" viewBox="0 0 24 24" fill="none" xmlns="http://www.w3.org/2000/svg">
<path d="M21.9231 3.11536H2.07694C0.931687 3.11536 0 4.04704 0 5.19225V11.8845C0 13.0297 0.931687 13.9615 2.07694 13.9615H21.9231C23.0683 13.9615 24 13.0298 24 11.8845V5.19225C24 4.04704 23.0683 3.11536 21.9231 3.11536ZM4.5577 12.5769L5.07694 10.2692H18.9231L19.4423 12.5769H4.5577ZM22.6154 11.8845C22.6154 12.2663 22.3049 12.5768 21.9231 12.5768H20.8616L20.1524 9.42492C20.0813 9.10898 19.8007 8.88454 19.4769 8.88454H4.52306C4.19925 8.88454 3.9187 9.10898 3.84764 9.42492L3.13842 12.5768H2.07694C1.69519 12.5768 1.38464 12.2663 1.38464 11.8845V5.19225C1.38464 4.8105 1.69519 4.49995 2.07694 4.49995H21.9231C22.3049 4.49995 22.6154 4.8105 22.6154 5.19225V11.8845Z" fill="#5E5E5E"/>
<path d="M15.6923 6.5769H14.7693C14.3869 6.5769 14.077 6.88689 14.077 7.2692C14.077 7.65151 14.3869 7.9615 14.7693 7.9615H15.6923C16.0747 7.9615 16.3846 7.65151 16.3846 7.2692C16.3846 6.88689 16.0747 6.5769 15.6923 6.5769Z" fill="#5E5E5E"/>
<path d="M18.923 6.5769H18C17.6176 6.5769 17.3077 6.88689 17.3077 7.2692C17.3077 7.65151 17.6177 7.9615 18 7.9615H18.923C19.3054 7.9615 19.6153 7.65151 19.6153 7.2692C19.6153 6.88689 19.3054 6.5769 18.923 6.5769Z" fill="#5E5E5E"/>
<path d="M12.4616 17.1152C12.4616 16.9224 12.4975 16.8625 12.5937 16.7023C12.7249 16.4837 12.9231 16.1533 12.9231 15.5769C12.9231 15.1946 12.6131 14.8846 12.2308 14.8846C11.8485 14.8846 11.5385 15.1946 11.5385 15.5769C11.5385 15.7697 11.5025 15.8297 11.4064 15.9899C11.2752 16.2085 11.077 16.5389 11.077 17.1152C11.077 17.6916 11.2752 18.022 11.4064 18.2407C11.5025 18.401 11.5385 18.4609 11.5385 18.6538C11.5385 18.8466 11.5025 18.9067 11.4064 19.0668C11.2752 19.2855 11.077 19.6159 11.077 20.1923C11.077 20.5747 11.3869 20.8846 11.7693 20.8846C12.1516 20.8846 12.4616 20.5746 12.4616 20.1923C12.4616 19.9994 12.4975 19.9394 12.5937 19.7792C12.7249 19.5606 12.9231 19.2302 12.9231 18.6538C12.9231 18.0773 12.7249 17.747 12.5937 17.5283C12.4976 17.3681 12.4616 17.3081 12.4616 17.1152Z" fill="#5E5E5E"/>
<path d="M8.76924 17.1152C8.76924 16.9224 8.80519 16.8625 8.90133 16.7023C9.03253 16.4837 9.23077 16.1533 9.23077 15.5769C9.23077 15.1946 8.92078 14.8846 8.53847 14.8846C8.15616 14.8846 7.84617 15.1946 7.84617 15.5769C7.84617 15.7697 7.81022 15.8297 7.71408 15.9899C7.58288 16.2085 7.38464 16.5389 7.38464 17.1152C7.38464 17.6916 7.58288 18.022 7.71403 18.2407C7.81017 18.401 7.84617 18.4609 7.84617 18.6538C7.84617 18.8466 7.81022 18.9067 7.71403 19.0668C7.58288 19.2855 7.38464 19.6159 7.38464 20.1923C7.38464 20.5747 7.69463 20.8846 8.07694 20.8846C8.45925 20.8846 8.76924 20.5746 8.76924 20.1923C8.76924 19.9994 8.80519 19.9394 8.90138 19.7792C9.03253 19.5606 9.23077 19.2302 9.23077 18.6538C9.23077 18.0773 9.03253 17.747 8.90138 17.5283C8.80524 17.3681 8.76924 17.3081 8.76924 17.1152Z" fill="#5E5E5E"/>
<path d="M16.1538 17.1152C16.1538 16.9224 16.1898 16.8625 16.2859 16.7023C16.4171 16.4837 16.6154 16.1533 16.6154 15.5769C16.6154 15.1946 16.3054 14.8846 15.9231 14.8846C15.5407 14.8846 15.2308 15.1946 15.2308 15.5769C15.2308 15.7697 15.1948 15.8297 15.0987 15.9899C14.9675 16.2085 14.7692 16.5389 14.7692 17.1152C14.7692 17.6916 14.9675 18.022 15.0986 18.2407C15.1948 18.401 15.2308 18.4609 15.2308 18.6538C15.2308 18.8466 15.1948 18.9067 15.0986 19.0668C14.9675 19.2855 14.7692 19.6159 14.7692 20.1923C14.7692 20.5747 15.0792 20.8846 15.4615 20.8846C15.8438 20.8846 16.1538 20.5746 16.1538 20.1923C16.1538 19.9994 16.1898 19.9394 16.286 19.7792C16.4171 19.5606 16.6154 19.2302 16.6154 18.6538C16.6154 18.0773 16.4171 17.747 16.286 17.5283C16.1898 17.3681 16.1538 17.3081 16.1538 17.1152Z" fill="#5E5E5E"/>
</svg>
