<svg width="24" height="24" viewBox="0 0 24 24" fill="none" xmlns="http://www.w3.org/2000/svg">
<g clip-path="url(#clip0_1779_9914)">
<path d="M23.2961 0.00708008C21.3342 0.00708008 19.7407 1.06613 18.8648 2.46436C15.3161 0.047955 10.3247 -0.0554513 6.67814 2.20256V0.710205C6.64355 -0.221717 5.30616 -0.221014 5.27189 0.710205V2.83542H4.04217V0.710205C4.00758 -0.221717 2.67019 -0.221014 2.63592 0.710205V2.83542H1.40625V0.710205C1.37166 -0.22167 0.0342656 -0.220967 0 0.710205V7.98689C0 8.94938 0.416344 9.86007 1.12969 10.4903V12.0071V21.7977C1.24284 24.7352 5.44767 24.7143 5.54845 21.7977V21.0353C9.40852 24.2174 15.7409 24.2035 19.5813 21.0355V21.7977C19.6958 24.7369 23.896 24.7118 24 21.7977V0.710205C24 0.321893 23.6844 0.00708008 23.2961 0.00708008ZM4.1422 21.7977C4.10555 22.858 2.57742 22.8654 2.53594 21.7977V12.7102H4.1422V21.7977ZM5.27189 7.98689C5.27189 8.61849 4.96209 9.2116 4.44314 9.57352C4.25456 9.705 4.1422 9.92035 4.1422 10.1503V11.304H2.53594V10.1503C2.53594 9.92044 2.42362 9.7051 2.23514 9.57361C1.71609 9.2115 1.40625 8.6183 1.40625 7.98689V4.24172H5.27189V7.98689ZM6.67814 3.88908C10.0094 1.39524 14.9025 1.34686 18.2828 3.76856C18.1448 4.24158 18.075 4.73049 18.075 5.22825V5.64099C14.6407 2.78771 10.0251 2.85356 6.67814 5.98664V3.88908ZM5.76178 10.2844C6.29761 9.71874 6.62086 8.97811 6.6712 8.20074C8.85684 4.58696 14.8133 3.54511 18.075 7.6651V15.7727C18.075 15.9245 18.1231 16.065 18.2049 16.1799C13.5584 22.2726 3.99403 17.754 5.76178 10.2844ZM19.5812 19.1702C15.8716 22.967 9.25833 22.9668 5.54841 19.1701V16.6611C8.72583 21.6105 16.3286 21.687 19.5812 16.6646V19.1702ZM22.5938 21.7977C22.5555 22.8578 21.029 22.8652 20.9875 21.7977V16.4759H22.5938V21.7977ZM22.5938 15.0696H19.4813V5.22821C19.4813 3.69783 20.5229 1.86089 22.5938 1.47746V15.0696Z" fill="#5E5E5E"/>
</g>
<defs>
<clipPath id="clip0_1779_9914">
<rect width="24" height="24" fill="white"/>
</clipPath>
</defs>
</svg>
