<svg width="57" height="57" viewBox="0 0 57 57" fill="none" xmlns="http://www.w3.org/2000/svg">
<g id="Interface / Trash_Full">
<path id="Vector" d="M33.1668 23.8333V40.1667M23.8335 23.8333V40.1667M14.5002 14.5V42.0333C14.5002 44.6469 14.5002 45.9528 15.0088 46.951C15.4562 47.8291 16.1696 48.5445 17.0477 48.9919C18.045 49.5 19.3511 49.5 21.9596 49.5H35.0407C37.6492 49.5 38.9535 49.5 39.9508 48.9919C40.8288 48.5445 41.5446 47.8291 41.992 46.951C42.5002 45.9538 42.5002 44.649 42.5002 42.0405V14.5M14.5002 14.5H19.1668M14.5002 14.5H9.8335M19.1668 14.5H37.8335M19.1668 14.5C19.1668 12.3256 19.1668 11.2389 19.5221 10.3813C19.9957 9.23788 20.9036 8.32887 22.047 7.85523C22.9046 7.5 23.9924 7.5 26.1668 7.5H30.8335C33.0079 7.5 34.0951 7.5 34.9527 7.85523C36.0962 8.32887 37.0044 9.23788 37.478 10.3813C37.8333 11.2389 37.8335 12.3256 37.8335 14.5M37.8335 14.5H42.5002M42.5002 14.5H47.1668" stroke="white" stroke-width="4" stroke-linecap="round" stroke-linejoin="round"/>
</g>
</svg>
