<svg width="16" height="16" viewBox="0 0 16 16" fill="none" xmlns="http://www.w3.org/2000/svg">
<path d="M9.33332 6.66667V11.3333M6.66666 6.66667V11.3333M3.99999 4V11.8667C3.99999 12.6134 3.99999 12.9865 4.14531 13.2717C4.27315 13.5226 4.47697 13.727 4.72785 13.8548C5.01279 14 5.38599 14 6.13126 14H9.86872C10.614 14 10.9866 14 11.2716 13.8548C11.5225 13.727 11.727 13.5226 11.8548 13.2717C12 12.9868 12 12.614 12 11.8687V4M3.99999 4H5.33332M3.99999 4H2.66666M5.33332 4H10.6667M5.33332 4C5.33332 3.37874 5.33332 3.06827 5.43482 2.82324C5.57014 2.49654 5.82954 2.23682 6.15624 2.10149C6.40127 2 6.71207 2 7.33332 2H8.66666C9.28791 2 9.59854 2 9.84357 2.10149C10.1703 2.23682 10.4298 2.49654 10.5651 2.82324C10.6666 3.06827 10.6667 3.37875 10.6667 4M10.6667 4H12M12 4H13.3333" stroke="#5E5E5E" stroke-width="1.2" stroke-linecap="round" stroke-linejoin="round"/>
</svg>
