<svg width="24" height="24" viewBox="0 0 24 24" fill="none" xmlns="http://www.w3.org/2000/svg">
<g clip-path="url(#clip0_1779_9899)">
<path d="M2.96939 4.49231V8.26739C2.96939 8.6557 3.2842 8.97051 3.67252 8.97051H9.57469C9.963 8.97051 10.2778 8.6557 10.2778 8.26739V4.49231C10.2778 4.104 9.963 3.78918 9.57469 3.78918H3.67252C3.28416 3.78918 2.96939 4.104 2.96939 4.49231ZM4.37564 5.19543H8.87156V7.56426H4.37564V5.19543Z" fill="#5E5E5E"/>
<path d="M8.03241 14.9556H6.40974L7.39139 13.1886C7.57997 12.8492 7.45767 12.4211 7.11825 12.2325C6.77883 12.0439 6.35072 12.1662 6.16214 12.5057L4.60013 15.3173C4.47914 15.5351 4.48242 15.8006 4.6088 16.0153C4.73517 16.2301 4.96566 16.3619 5.2148 16.3619H6.81342L5.70952 18.2703C5.51513 18.6064 5.62997 19.0365 5.96611 19.231C6.07697 19.2951 6.198 19.3256 6.31753 19.3256C6.5603 19.3256 6.7965 19.1997 6.92682 18.9744L8.64108 16.0108C8.76694 15.7932 8.76708 15.5251 8.6415 15.3074C8.51593 15.0897 8.28375 14.9556 8.03241 14.9556Z" fill="#5E5E5E"/>
<path d="M23.2969 3.51914H23.1234V2.44678C23.1234 2.05847 22.8086 1.74366 22.4203 1.74366C22.032 1.74366 21.7172 2.05847 21.7172 2.44678V3.51914H20.4454V2.44678C20.4454 2.05847 20.1306 1.74366 19.7423 1.74366C19.3539 1.74366 19.0391 2.05847 19.0391 2.44678V3.51914H18.8413C18.453 3.51914 18.1381 3.83395 18.1381 4.22227V6.10495C18.1381 7.47787 19.0886 8.6325 20.3659 8.9468V17.3338C20.3659 18.3046 19.5737 19.0944 18.5999 19.0944C17.626 19.0944 16.8338 18.3046 16.8338 17.3338V13.2983C16.8338 11.5521 15.4107 10.1314 13.6615 10.1314H13.2471V1.84753C13.2471 1.56042 13.0725 1.30209 12.8061 1.19508C10.8319 0.402094 8.7518 0 6.62362 0C4.49545 0 2.41533 0.402094 0.441047 1.19503C0.174609 1.30205 0 1.56038 0 1.84753V23.2969C0 23.6852 0.314812 24 0.703125 24H12.544C12.9323 24 13.2472 23.6852 13.2472 23.2969V11.5376H13.6615C14.6353 11.5376 15.4276 12.3274 15.4276 13.2983V17.3337C15.4276 19.08 16.8507 20.5006 18.5999 20.5006C20.3491 20.5006 21.7722 19.08 21.7722 17.3337V8.94675C23.0496 8.63245 24 7.47788 24 6.10491V4.22227C24 3.83395 23.6852 3.51914 23.2969 3.51914ZM11.8409 22.5938H1.40625V2.33063C3.08091 1.71698 4.83356 1.40625 6.62362 1.40625C8.41364 1.40625 10.1663 1.71698 11.841 2.33063L11.8409 22.5938ZM22.5938 6.10491C22.5938 6.94336 21.9116 7.62548 21.0732 7.62548H21.065C20.2265 7.62548 19.5444 6.94336 19.5444 6.10491V4.92534H22.5938V6.10491Z" fill="#5E5E5E"/>
</g>
<defs>
<clipPath id="clip0_1779_9899">
<rect width="24" height="24" fill="white"/>
</clipPath>
</defs>
</svg>
