<svg width="24" height="24" viewBox="0 0 24 24" fill="none" xmlns="http://www.w3.org/2000/svg">
<g clip-path="url(#clip0_1779_9917)">
<path d="M22.875 0H1.125C0.504703 0 0 0.504703 0 1.125V22.875C0 23.4953 0.504703 24 1.125 24H22.875C23.4953 24 24 23.4953 24 22.875V1.125C24 0.504703 23.4953 0 22.875 0ZM12.7031 8.56252H18.653V22.5938H12.7031V8.56252ZM11.2969 22.5938H5.34703V8.56252H11.2969V22.5938ZM22.5938 22.5938H20.0592V7.85939C20.0592 7.47108 19.7444 7.15627 19.3561 7.15627C19.0376 7.15627 4.96233 7.15627 4.64391 7.15627C4.25559 7.15627 3.94078 7.47108 3.94078 7.85939V22.5938H1.40625V1.40625H22.5938V22.5938Z" fill="#5E5E5E"/>
<path d="M6.83625 5.60906C7.15265 5.83406 7.59164 5.76005 7.81678 5.44369L8.32195 4.73348L8.82712 5.44369C9.05236 5.76028 9.49144 5.83402 9.80765 5.60906C10.1241 5.38397 10.1981 4.94498 9.97303 4.62853L8.8949 3.11292C8.61468 2.71903 8.02898 2.71936 7.749 3.11292L6.67087 4.62853C6.44578 4.94494 6.51979 5.38392 6.83625 5.60906Z" fill="#5E5E5E"/>
<path d="M15.1051 5.44364C15.3853 5.83753 15.971 5.8372 16.251 5.44364L17.3291 3.92803C17.5542 3.61162 17.4802 3.17259 17.1638 2.9475C16.8473 2.72241 16.4083 2.79647 16.1832 3.11287L15.678 3.82308L15.1729 3.11287C14.9477 2.79642 14.5087 2.72241 14.1923 2.9475C13.8759 3.17259 13.8019 3.61158 14.027 3.92803L15.1051 5.44364Z" fill="#5E5E5E"/>
</g>
<defs>
<clipPath id="clip0_1779_9917">
<rect width="24" height="24" fill="white"/>
</clipPath>
</defs>
</svg>
