<svg width="24" height="25" viewBox="0 0 24 25" fill="none" xmlns="http://www.w3.org/2000/svg">
<path d="M11.9998 2.13696C6.47696 2.13696 1.99976 6.61416 1.99976 12.137C1.99976 16.8266 5.22856 20.7618 9.58416 21.8426V15.193H7.52216V12.137H9.58416V10.8202C9.58416 7.41656 11.1246 5.83896 14.4662 5.83896C15.0998 5.83896 16.193 5.96336 16.6402 6.08736V8.85736C16.4042 8.83256 15.9942 8.82016 15.485 8.82016C13.8454 8.82016 13.2118 9.44136 13.2118 11.0562V12.137H16.4782L15.917 15.193H13.2118V22.0638C18.1634 21.4658 22.0002 17.2498 22.0002 12.137C21.9998 6.61416 17.5226 2.13696 11.9998 2.13696Z" fill="white"/>
</svg>
