<svg width="41" height="40" viewBox="0 0 41 40" fill="none" xmlns="http://www.w3.org/2000/svg">
<g id="lets-icons:check-fill">
<path id="Vector" fill-rule="evenodd" clip-rule="evenodd" d="M20.5 35C22.4698 35 24.4204 34.612 26.2403 33.8582C28.0601 33.1044 29.7137 31.9995 31.1066 30.6066C32.4995 29.2137 33.6044 27.5601 34.3582 25.7403C35.112 23.9204 35.5 21.9698 35.5 20C35.5 18.0302 35.112 16.0796 34.3582 14.2597C33.6044 12.4399 32.4995 10.7863 31.1066 9.3934C29.7137 8.00052 28.0601 6.89563 26.2403 6.14181C24.4204 5.38799 22.4698 5 20.5 5C16.5218 5 12.7064 6.58035 9.8934 9.3934C7.08035 12.2064 5.5 16.0218 5.5 20C5.5 23.9782 7.08035 27.7936 9.8934 30.6066C12.7064 33.4196 16.5218 35 20.5 35ZM20.1133 26.0667L28.4467 16.0667L25.8867 13.9333L18.72 22.5317L15.0117 18.8217L12.655 21.1783L17.655 26.1783L18.945 27.4683L20.1133 26.0667Z" fill="#DE225C"/>
</g>
</svg>
