<svg width="24" height="24" viewBox="0 0 24 24" fill="none" xmlns="http://www.w3.org/2000/svg">
<g clip-path="url(#clip0_1779_9896)">
<path d="M23.3832 6.58358L21.8915 5.09188L23.3832 3.60017C23.6578 3.32553 23.6578 2.88036 23.3832 2.60572L21.3943 0.616868C21.12 0.342462 20.6745 0.342322 20.3999 0.616868L18.9081 2.10857L17.4165 0.616868C16.594 -0.205646 15.2556 -0.205599 14.4332 0.616868L13.8513 1.19873C13.072 0.825649 12.1028 0.958352 11.4499 1.61132L10.4554 2.60577C10.181 2.88008 10.1807 3.32563 10.4554 3.60022L13.936 7.08078L7.08098 13.9359L3.60038 10.4553C3.32597 10.1809 2.88047 10.1807 2.60593 10.4553L1.61152 11.4497C0.963291 12.0978 0.826369 13.0663 1.19982 13.8503L0.617073 14.433C-0.205442 15.2555 -0.205442 16.5939 0.617073 17.4164L2.10877 18.9081L0.617073 20.3998C0.342432 20.6744 0.342432 21.1196 0.617073 21.3942L2.60593 23.3831C2.88033 23.6575 3.32583 23.6577 3.60038 23.3831L5.09208 21.8914L6.58383 23.3832C7.40629 24.2056 8.74462 24.2056 9.56713 23.3832L10.149 22.8013C10.9284 23.1744 11.8975 23.0417 12.5505 22.3887L13.545 21.3943C13.8193 21.1199 13.8196 20.6744 13.545 20.3998L10.0644 16.9192L16.9194 10.0642L20.4 13.5448C20.6743 13.8192 21.1199 13.8194 21.3944 13.5448L22.3889 12.5504C23.0371 11.9022 23.174 10.9338 22.8006 10.1498L23.3833 9.56702C24.2057 8.74437 24.2057 7.40609 23.3832 6.58358ZM20.8972 2.10857L21.8916 3.10302L20.8972 4.09752L19.9027 3.10307L20.8972 2.10857ZM3.10318 21.8914L2.10873 20.8969L3.10318 19.9025L4.09763 20.8969L3.10318 21.8914ZM8.57264 22.3886C8.29851 22.6628 7.8524 22.6627 7.57823 22.3886L1.61152 16.4219C1.33735 16.1478 1.33735 15.7016 1.61152 15.4275L2.10873 14.9303L9.06989 21.8914L8.57264 22.3886ZM12.0532 20.897L11.556 21.3942C11.2811 21.669 10.8364 21.669 10.5615 21.3942L2.60597 13.4386C2.33115 13.1638 2.33115 12.719 2.60597 12.4442L3.10318 11.947C3.41269 12.2565 11.8973 20.7411 12.0532 20.897ZM9.06989 15.9247L8.07543 14.9303L14.9304 8.07523L15.9249 9.06968L9.06989 15.9247ZM21.3943 11.5558L20.8971 12.053L15.4277 6.58367L15.4277 6.58362L15.4276 6.58358L11.9471 3.10311L12.4443 2.60586C12.7191 2.33108 13.1639 2.33094 13.4388 2.60586L21.3944 10.5615C21.6692 10.8362 21.6692 11.281 21.3943 11.5558ZM22.3888 8.57248L21.8916 9.06968L14.9304 2.10857L15.4277 1.61137C15.7019 1.33719 16.1479 1.33719 16.4221 1.61137L22.3888 7.57803C22.663 7.8522 22.663 8.29835 22.3888 8.57248Z" fill="#5E5E5E"/>
</g>
<defs>
<clipPath id="clip0_1779_9896">
<rect width="24" height="24" fill="white"/>
</clipPath>
</defs>
</svg>
