<svg width="14" height="16" viewBox="0 0 14 16" fill="none" xmlns="http://www.w3.org/2000/svg">
<path d="M9.8173 2C9.34 1.9996 8.86742 2.09449 8.42727 2.27912C7.98713 2.46375 7.58827 2.7344 7.2541 3.0752L6.7213 3.6128L6.1885 3.0752C5.85391 2.73502 5.45496 2.46484 5.01489 2.28041C4.57482 2.09599 4.10245 2.00101 3.6253 2.00101C3.14815 2.00101 2.67577 2.09599 2.2357 2.28041C1.79564 2.46484 1.39668 2.73502 1.0621 3.0752C0.3814 3.76814 0 4.70065 0 5.672C0 6.64335 0.3814 7.57586 1.0621 8.2688L6.7213 14L12.3805 8.2688C13.0612 7.57586 13.4426 6.64335 13.4426 5.672C13.4426 4.70065 13.0612 3.76814 12.3805 3.0752C12.0458 2.73505 11.6469 2.46483 11.2069 2.28024C10.7668 2.09566 10.2945 2.0004 9.8173 2Z" fill="white"/>
</svg>
