<svg width="24" height="25" viewBox="0 0 24 25" fill="none" xmlns="http://www.w3.org/2000/svg">
<path d="M12.0059 3.90308C14.6777 3.90308 14.9941 3.91479 16.0449 3.96167C17.0215 4.00464 17.5488 4.1687 17.9004 4.30542C18.3652 4.48511 18.7012 4.70386 19.0488 5.05151C19.4004 5.40308 19.6152 5.73511 19.7949 6.19995C19.9316 6.55151 20.0957 7.08276 20.1387 8.05542C20.1855 9.11011 20.1973 9.42651 20.1973 12.0945C20.1973 14.7664 20.1855 15.0828 20.1387 16.1335C20.0957 17.1101 19.9316 17.6375 19.7949 17.989C19.6152 18.4539 19.3965 18.7898 19.0488 19.1375C18.6973 19.489 18.3652 19.7039 17.9004 19.8835C17.5488 20.0203 17.0176 20.1843 16.0449 20.2273C14.9902 20.2742 14.6738 20.2859 12.0059 20.2859C9.33399 20.2859 9.01758 20.2742 7.9668 20.2273C6.99024 20.1843 6.46289 20.0203 6.11133 19.8835C5.64648 19.7039 5.31055 19.4851 4.96289 19.1375C4.61133 18.7859 4.39648 18.4539 4.2168 17.989C4.08008 17.6375 3.91602 17.1062 3.87305 16.1335C3.82617 15.0789 3.81445 14.7625 3.81445 12.0945C3.81445 9.42261 3.82617 9.1062 3.87305 8.05542C3.91602 7.07886 4.08008 6.55151 4.2168 6.19995C4.39648 5.73511 4.61523 5.39917 4.96289 5.05151C5.31445 4.69995 5.64648 4.48511 6.11133 4.30542C6.46289 4.1687 6.99414 4.00464 7.9668 3.96167C9.01758 3.91479 9.33399 3.90308 12.0059 3.90308ZM12.0059 2.10229C9.29102 2.10229 8.95117 2.11401 7.88477 2.16089C6.82227 2.20776 6.0918 2.37964 5.45898 2.62573C4.79883 2.88354 4.24023 3.22339 3.68555 3.78198C3.12695 4.33667 2.78711 4.89526 2.5293 5.55151C2.2832 6.18823 2.11133 6.91479 2.06445 7.97729C2.01758 9.04761 2.00586 9.38745 2.00586 12.1023C2.00586 14.8171 2.01758 15.157 2.06445 16.2234C2.11133 17.2859 2.2832 18.0164 2.5293 18.6492C2.78711 19.3093 3.12695 19.8679 3.68555 20.4226C4.24023 20.9773 4.79883 21.321 5.45508 21.575C6.0918 21.821 6.81836 21.9929 7.88086 22.0398C8.94727 22.0867 9.28711 22.0984 12.002 22.0984C14.7168 22.0984 15.0566 22.0867 16.123 22.0398C17.1855 21.9929 17.916 21.821 18.5488 21.575C19.2051 21.321 19.7637 20.9773 20.3184 20.4226C20.873 19.8679 21.2168 19.3093 21.4707 18.6531C21.7168 18.0164 21.8887 17.2898 21.9355 16.2273C21.9824 15.1609 21.9941 14.821 21.9941 12.1062C21.9941 9.39136 21.9824 9.05151 21.9355 7.98511C21.8887 6.92261 21.7168 6.19214 21.4707 5.55933C21.2246 4.89526 20.8848 4.33667 20.3262 3.78198C19.7715 3.2273 19.2129 2.88354 18.5566 2.62964C17.9199 2.38354 17.1934 2.21167 16.1309 2.16479C15.0605 2.11401 14.7207 2.10229 12.0059 2.10229Z" fill="white"/>
<path d="M12 7.10034C9.23954 7.10034 7 9.33989 7 12.1003C7 14.8608 9.23954 17.1003 12 17.1003C14.7605 17.1003 17 14.8608 17 12.1003C17 9.33989 14.7605 7.10034 12 7.10034ZM12 15.3437C10.2091 15.3437 8.75665 13.8912 8.75665 12.1003C8.75665 10.3095 10.2091 8.857 12 8.857C13.7909 8.857 15.2433 10.3095 15.2433 12.1003C15.2433 13.8912 13.7909 15.3437 12 15.3437Z" fill="white"/>
<path d="M17.8781 6.53941C17.8781 7.33628 17.2313 7.97847 16.4391 7.97847C15.6422 7.97847 15 7.33159 15 6.53941C15 5.74253 15.6469 5.10034 16.4391 5.10034C17.2313 5.10034 17.8781 5.74722 17.8781 6.53941Z" fill="white"/>
</svg>
