<svg width="100" height="31" viewBox="0 0 100 31" fill="none" xmlns="http://www.w3.org/2000/svg">
<path fill-rule="evenodd" clip-rule="evenodd" d="M13.7458 17.3579V15.786H14.5151C14.9833 15.786 15.3178 15.8529 15.5184 15.9867C15.6856 16.087 15.786 16.2542 15.786 16.5218C15.786 16.8228 15.6856 17.0235 15.4515 17.1572C15.2174 17.291 14.7492 17.3579 14.1137 17.3579H13.7458Z" fill="white"/>
<path d="M14.5151 15.9532C15.0502 15.9532 15.3177 16.0536 15.4181 16.1204C15.5184 16.1873 15.5853 16.2542 15.5853 16.5218C15.5853 16.8228 15.4515 16.9566 15.3512 17.0235C15.184 17.0903 14.8495 17.1907 14.0803 17.1907H13.8796V15.9532H14.5151ZM14.5151 15.6188H13.5786V17.5251H14.1137C14.7826 17.5251 15.2843 17.4582 15.5519 17.291C15.8194 17.1238 15.9866 16.8897 15.9866 16.5218C15.9866 16.2208 15.8863 15.9867 15.6522 15.8529C15.3846 15.6857 15.0167 15.6188 14.5151 15.6188Z" fill="white"/>
<path fill-rule="evenodd" clip-rule="evenodd" d="M9.26413 24.7492C9.16379 24.7492 9.06346 24.7157 8.96312 24.6154C8.89624 24.5485 8.82935 24.4482 8.82935 24.3144L8.86279 11.8395C8.86279 11.6388 8.96312 11.4716 9.0969 11.3713L17.0233 5.31774C17.1237 5.25085 17.2574 5.18396 17.3912 5.18396C17.525 5.18396 17.6588 5.2174 17.7591 5.31774L25.719 11.4381C25.8528 11.5385 25.9531 11.7391 25.9531 11.9064V24.3478C25.9531 24.4482 25.9196 24.5485 25.8193 24.6154C25.7524 24.7157 25.6521 24.7492 25.5518 24.7492H9.26413ZM14.4146 20.903C14.816 22.5753 15.9196 23.4114 17.7257 23.4114C18.1604 23.4114 18.5952 23.3111 19.0635 23.1438L19.1638 23.1104V20.5686L18.9631 20.602C18.6956 20.6355 18.4949 20.6689 18.3946 20.6689C18.0601 20.6689 17.826 20.602 17.6588 20.5017C17.4916 20.4014 17.3578 20.1672 17.2574 19.8662C17.1905 19.6321 17.1237 19.3646 17.0568 19.0636C17.6588 18.796 18.0936 18.4616 18.3946 18.0602C18.729 17.6254 18.8628 17.0569 18.8628 16.4214C18.8628 15.8194 18.6956 15.3177 18.3277 14.8495C17.9932 14.4147 17.4916 14.0468 16.8561 13.8127C16.2541 13.5786 15.5183 13.4448 14.7156 13.4448H10.3678V23.2442H13.7123V19.5987H14.0467L14.4146 20.903ZM22.6755 19.7993C21.6722 19.7993 20.8695 20.602 20.8695 21.6054C20.8695 22.6087 21.6722 23.4114 22.6755 23.4114C23.6788 23.4114 24.4815 22.6087 24.4815 21.6054C24.4815 20.602 23.6788 19.7993 22.6755 19.7993Z" fill="white"/>
<path d="M17.3912 5.35117C17.4915 5.35117 17.5919 5.38462 17.6588 5.45151L25.6186 11.5719C25.719 11.6388 25.7859 11.7726 25.7859 11.9064V24.3478C25.7859 24.4147 25.7524 24.4816 25.719 24.5151C25.6855 24.5485 25.6186 24.5819 25.5517 24.5819H9.26412C9.19723 24.5819 9.13034 24.5485 9.09689 24.5151C9.06345 24.4816 9.03 24.4147 9.03 24.3478L9.06345 11.8729C9.06345 11.7391 9.13034 11.6054 9.23067 11.5385L17.1236 5.45151C17.224 5.38462 17.2909 5.35117 17.3912 5.35117ZM10.234 23.3779H10.5685H13.5785H13.9129V23.0435V19.7993H13.9464L14.214 20.9699C14.6487 22.7425 15.8193 23.612 17.6922 23.612C18.127 23.612 18.5952 23.5117 19.0634 23.3445L19.2641 23.2776V23.0435V20.8027V20.4348L18.8962 20.5017C18.5618 20.5351 18.428 20.5686 18.3277 20.5686C18.0267 20.5686 17.826 20.5351 17.6922 20.4348C17.5584 20.3344 17.4581 20.1338 17.3578 19.8997C17.2909 19.699 17.2574 19.4649 17.1905 19.2308C17.7591 18.9632 18.1604 18.6288 18.4614 18.2274C18.7959 17.7592 18.9631 17.1572 18.9631 16.4883C18.9631 15.8528 18.7624 15.3177 18.3946 14.8161C18.0267 14.3478 17.4915 13.9799 16.8561 13.7458C16.2206 13.4783 15.4849 13.3779 14.6487 13.3779H10.5685H10.234V13.7124V23.1773V23.3779ZM22.6755 23.5452C23.7457 23.5452 24.6487 22.6756 24.6487 21.5719C24.6487 20.4682 23.7792 19.5987 22.6755 19.5987C21.6053 19.5987 20.7022 20.4682 20.7022 21.5719C20.7022 22.6756 21.6053 23.5452 22.6755 23.5452ZM17.3912 5.01672C17.224 5.01672 17.0568 5.08361 16.923 5.18395L8.99656 11.3043C8.79589 11.4381 8.69556 11.6722 8.69556 11.9064V24.3478C8.69556 24.6488 8.96312 24.9164 9.26412 24.9164H25.5517C25.8527 24.9164 26.1203 24.6488 26.1203 24.3478V11.9064C26.1203 11.6722 26.02 11.4381 25.8193 11.3043L17.8594 5.18395C17.7257 5.08361 17.5584 5.01672 17.3912 5.01672ZM10.5685 23.0435V13.5786H14.7156C15.5183 13.5786 16.1872 13.7124 16.7892 13.9465C17.3912 14.1806 17.8594 14.5151 18.1939 14.9164C18.5283 15.3512 18.6956 15.8194 18.6956 16.388C18.6956 16.99 18.5283 17.5251 18.2273 17.9264C17.9263 18.3278 17.4915 18.6622 16.8561 18.9298C16.923 19.2642 16.9899 19.5987 17.0902 19.8662C17.1905 20.2007 17.3578 20.4682 17.5584 20.602C17.7591 20.7358 18.0267 20.8027 18.3946 20.8027C18.5283 20.8027 18.729 20.7692 18.9966 20.7358V22.9766C18.5618 23.1438 18.1604 23.2107 17.7257 23.2107C16.02 23.2107 14.9497 22.408 14.5484 20.8361L14.214 19.4314H13.5785V23.01H10.5685V23.0435ZM22.6755 23.2107C21.7725 23.2107 21.0367 22.4749 21.0367 21.5719C21.0367 20.6689 21.7725 19.9331 22.6755 19.9331C23.5785 19.9331 24.3143 20.6689 24.3143 21.5719C24.3143 22.5084 23.5785 23.2107 22.6755 23.2107Z" fill="white"/>
<path d="M87.3406 23.2223C86.4042 23.2223 85.5681 23.0885 84.8657 22.8209L85.1667 21.2156C85.8022 21.4497 86.4376 21.55 87.0396 21.55C87.4744 21.55 87.7085 21.4163 87.7085 21.1821C87.7085 21.0484 87.6416 20.948 87.5079 20.8811C87.3741 20.8142 87.14 20.7139 86.7721 20.6805C86.0363 20.5467 85.5012 20.2791 85.1667 19.9447C84.8323 19.6102 84.6985 19.1086 84.6985 18.5066C84.7319 17.8042 84.9995 17.2691 85.5346 16.8678C86.0697 16.4999 86.7721 16.2992 87.7085 16.2992C88.1767 16.2992 88.5781 16.3326 88.9125 16.3995C89.247 16.4664 89.548 16.5333 89.849 16.6671L89.5814 18.2724C89.3139 18.1721 89.0463 18.1052 88.7119 18.0383C88.4109 17.9714 88.1433 17.9714 87.9426 17.9714C87.6416 17.9714 87.441 18.0049 87.3072 18.0718C87.2068 18.1387 87.14 18.2055 87.14 18.3393C87.14 18.54 87.3741 18.6738 87.8089 18.7407C88.6115 18.8744 89.247 19.142 89.6483 19.4765C90.0497 19.8443 90.2503 20.3126 90.2503 20.948C90.2503 21.6504 90.0162 22.2189 89.5145 22.6203C88.9794 23.0216 88.2771 23.2223 87.3406 23.2223Z" fill="white"/>
<path d="M82.0942 23.2222C81.2916 23.2222 80.6895 22.9881 80.2548 22.5533C79.82 22.0851 79.5859 21.4831 79.5859 20.6804V18.0717H78.7163V16.3995H79.7865L81.024 13.8577H82.3952V16.3995H83.9671V18.0717H82.3952V20.346C82.3952 20.5801 82.4621 20.7473 82.5959 20.8811C82.7297 21.0149 82.9304 21.0817 83.1979 21.0817C83.432 21.0817 83.6661 21.0149 83.8668 20.9145L83.9671 22.7874C83.733 22.9212 83.4655 23.0215 83.0976 23.1219C82.7631 23.1888 82.4287 23.2222 82.0942 23.2222Z" fill="white"/>
<path d="M74.4223 23.12C73.72 23.12 73.0846 22.9862 72.516 22.7521C71.9809 22.518 71.5461 22.1501 71.2451 21.6819C70.9441 21.2136 70.7769 20.712 70.7769 20.11V16.2972H73.5528V20.11C73.5528 20.411 73.6197 20.6451 73.7869 20.8123C73.9541 20.9795 74.1548 21.0464 74.4223 21.0464C74.6565 21.0464 74.8571 20.9795 75.0244 20.8123C75.1916 20.6451 75.2585 20.411 75.2585 20.11V16.2972H77.9675V20.11C77.9675 20.712 77.8003 21.2136 77.4993 21.6819C77.1983 22.1166 76.7969 22.4845 76.2618 22.7186C75.7267 22.9862 75.1247 23.12 74.4223 23.12Z" fill="white"/>
<path d="M66.1364 23.2221C65.4007 23.2221 64.6983 23.0884 64.1297 22.7874C63.5612 22.4864 63.093 22.085 62.7585 21.5499C62.4241 21.0148 62.2903 20.4128 62.2903 19.7439C62.2903 19.075 62.4575 18.473 62.792 17.9379C63.1264 17.4027 63.5946 17.0014 64.1632 16.7004C64.7652 16.3994 65.4341 16.2656 66.1699 16.2656C66.9391 16.2656 67.608 16.3994 68.1766 16.7004C68.7786 17.0014 69.2134 17.4027 69.5478 17.9044C69.8823 18.4395 70.016 19.0081 70.016 19.7104C70.016 20.4128 69.8488 21.0148 69.5144 21.5499C69.1799 22.085 68.7451 22.4864 68.1431 22.7874C67.5746 23.0884 66.9057 23.2221 66.1364 23.2221ZM66.1699 21.2155C66.5378 21.2155 66.8388 21.0817 67.0729 20.8141C67.307 20.5466 67.4408 20.1787 67.4408 19.7439C67.4408 19.3091 67.307 18.9747 67.0729 18.7071C66.8388 18.4395 66.5378 18.3058 66.1699 18.3058C65.802 18.3058 65.501 18.4395 65.2669 18.7071C65.0328 18.9747 64.9324 19.3091 64.9324 19.7439C64.9324 20.1787 65.0328 20.5131 65.2669 20.8141C65.501 21.0817 65.802 21.2155 66.1699 21.2155Z" fill="white"/>
<path d="M59.6919 23.2587C58.8892 23.2587 58.2872 23.0246 57.8524 22.5898C57.4176 22.1216 57.1835 21.5196 57.1835 20.7169V18.1082H56.314V16.436H57.3842L58.6551 13.8942H60.0263V16.436H61.5982V18.1082H59.9929V20.3825C59.9929 20.6166 60.0598 20.7838 60.1936 20.9176C60.3273 21.0514 60.528 21.1182 60.7956 21.1182C61.0297 21.1182 61.2638 21.0514 61.4645 20.951L61.5648 22.8239C61.3307 22.9577 61.0631 23.058 60.6952 23.1584C60.3608 23.2253 60.0263 23.2587 59.6919 23.2587Z" fill="white"/>
<path d="M47.6824 16.4645H50.3914V17.8357C50.9265 16.7989 51.7292 16.2638 52.8663 16.2638C53.7359 16.2638 54.4048 16.5648 54.873 17.2002C55.3747 17.8023 55.6088 18.6384 55.6088 19.7421V23.0865H52.7994V19.4745C52.7994 19.0732 52.6991 18.8056 52.5319 18.6049C52.3646 18.4043 52.1305 18.3039 51.863 18.3039C51.6623 18.3039 51.4282 18.3708 51.2275 18.5046C51.0269 18.6384 50.8596 18.839 50.7259 19.1066C50.5921 19.3742 50.5252 19.6752 50.5252 19.9762V23.12H47.6824V16.4645Z" fill="white"/>
<path d="M43.7683 23.2201C43.0325 23.2201 42.3636 23.0863 41.795 22.7853C41.2265 22.4843 40.7917 22.083 40.4572 21.5478C40.1228 21.0127 39.989 20.4107 39.989 19.7753C39.989 19.1064 40.1562 18.5044 40.4907 17.9692C40.8251 17.4341 41.2599 17.0328 41.8285 16.7318C42.397 16.4308 43.0325 16.297 43.7014 16.297C44.3703 16.297 44.9388 16.4308 45.4071 16.7318C45.8753 17.0328 46.2432 17.4007 46.4773 17.9023C46.7114 18.404 46.8118 18.9391 46.8118 19.5746C46.8118 19.7418 46.8118 19.8421 46.7783 19.909L42.7649 20.4442C42.8653 20.7452 43.0325 20.9793 43.3 21.1131C43.5342 21.2468 43.8686 21.3137 44.2365 21.3137C44.8385 21.3137 45.5074 21.1465 46.2097 20.8455L46.5442 22.6515C45.6746 23.0194 44.7716 23.2201 43.7683 23.2201ZM44.7047 18.7719C44.571 18.2034 44.2365 17.9358 43.7014 17.9358C43.3669 17.9358 43.1328 18.0696 42.9322 18.3037C42.7315 18.5378 42.6312 18.8722 42.6312 19.2401L44.7047 18.7719Z" fill="white"/>
<path d="M37.9656 23.3204C36.2933 23.3204 35.2565 22.5511 34.8886 20.9792L34.5542 19.608H33.9187V23.1197H30.9756V13.8889H35.0559C35.8251 13.8889 36.494 13.9893 37.096 14.2234C37.698 14.4575 38.1328 14.7585 38.4672 15.1598C38.8017 15.5612 38.9355 16.0294 38.9355 16.5979C38.9355 17.2 38.8017 17.7016 38.5007 18.103C38.1997 18.5043 37.7649 18.8387 37.1629 19.1063C37.2298 19.4408 37.2967 19.7418 37.3635 20.0428C37.4639 20.3772 37.6311 20.6113 37.7983 20.7451C37.999 20.8789 38.2666 20.9458 38.601 20.9458C38.7348 20.9458 38.9355 20.9123 39.203 20.8789V23.0528C38.8017 23.2535 38.3669 23.3204 37.9656 23.3204ZM34.4204 17.7351C35.0893 17.7351 35.5575 17.6682 35.8251 17.5344C36.0926 17.3672 36.2264 17.1331 36.2264 16.7652C36.2264 16.4642 36.1261 16.2301 35.892 16.0963C35.6913 15.9625 35.3234 15.8622 34.8552 15.8622H33.9187L33.9164 17.7356L34.4204 17.7351Z" fill="white"/>
<path d="M91.6875 15.5681V14.1634H91.1858V13.8959H92.4901V14.1634H91.9885V15.5681H91.6875ZM92.7577 15.5681V13.8959H93.0587L93.6942 14.8992L94.3296 13.8959H94.6306V15.5681H94.3296V14.3975L93.7945 15.2002H93.5938L93.0587 14.3975V15.5681H92.7577Z" fill="white"/>
</svg>
