<svg width="200" height="61" viewBox="0 0 200 61" fill="none" xmlns="http://www.w3.org/2000/svg">
<path fill-rule="evenodd" clip-rule="evenodd" d="M27.4917 34.7157V31.5719H29.0302C29.9667 31.5719 30.6356 31.7057 31.0369 31.9732C31.3713 32.1739 31.572 32.5084 31.572 33.0435C31.572 33.6455 31.3713 34.0468 30.9031 34.3144C30.4349 34.5819 29.4984 34.7157 28.2275 34.7157H27.4917Z" fill="#DE225C"/>
<path d="M29.0301 31.9063C30.1003 31.9063 30.6354 32.107 30.8361 32.2408C31.0368 32.3746 31.1705 32.5083 31.1705 33.0434C31.1705 33.6455 30.903 33.913 30.7023 34.0468C30.3679 34.1806 29.699 34.3812 28.1605 34.3812H27.7592V31.9063H29.0301ZM29.0301 31.2374H27.1572V35.0501H28.2274C29.5652 35.0501 30.5685 34.9164 31.1037 34.5819C31.6388 34.2475 31.9732 33.7792 31.9732 33.0434C31.9732 32.4414 31.7725 31.9732 31.3043 31.7057C30.7692 31.3712 30.0334 31.2374 29.0301 31.2374Z" fill="#DE225C"/>
<path fill-rule="evenodd" clip-rule="evenodd" d="M18.5284 49.4984C18.3278 49.4984 18.1271 49.4315 17.9264 49.2308C17.7927 49.097 17.6589 48.8963 17.6589 48.6288L17.7258 23.679C17.7258 23.2776 17.9264 22.9432 18.194 22.7425L34.0468 10.6355C34.2475 10.5017 34.5151 10.3679 34.7826 10.3679C35.0502 10.3679 35.3177 10.4348 35.5184 10.6355L51.4381 22.8763C51.7057 23.0769 51.9064 23.4783 51.9064 23.8127V48.6957C51.9064 48.8963 51.8395 49.097 51.6388 49.2308C51.505 49.4315 51.3044 49.4984 51.1037 49.4984H18.5284ZM28.8294 41.806C29.6321 45.1505 31.8395 46.8228 35.4515 46.8228C36.3211 46.8228 37.1906 46.6221 38.1271 46.2876L38.3278 46.2208V41.1371L37.9264 41.204C37.3913 41.2709 36.99 41.3378 36.7893 41.3378C36.1204 41.3378 35.6522 41.204 35.3177 41.0034C34.9833 40.8027 34.7157 40.3345 34.5151 39.7325C34.3813 39.2642 34.2475 38.7291 34.1137 38.1271C35.3177 37.592 36.1873 36.9231 36.7893 36.1204C37.4582 35.2509 37.7258 34.1137 37.7258 32.8428C37.7258 31.6388 37.3913 30.6355 36.6555 29.699C35.9866 28.8295 34.9833 28.0937 33.7124 27.6254C32.5084 27.1572 31.0368 26.8897 29.4314 26.8897H20.7358V46.4883H27.4248V39.1973H28.0937L28.8294 41.806ZM45.3512 39.5987C43.3445 39.5987 41.7391 41.204 41.7391 43.2107C41.7391 45.2174 43.3445 46.8228 45.3512 46.8228C47.3579 46.8228 48.9632 45.2174 48.9632 43.2107C48.9632 41.204 47.3579 39.5987 45.3512 39.5987Z" fill="#DE225C"/>
<path d="M34.7827 10.7023C34.9834 10.7023 35.184 10.7692 35.3178 10.903L51.2375 23.1438C51.4382 23.2776 51.572 23.5452 51.572 23.8127V48.6957C51.572 48.8294 51.5051 48.9633 51.4382 49.0302C51.3713 49.097 51.2375 49.1639 51.1038 49.1639H18.5285C18.3947 49.1639 18.261 49.097 18.1941 49.0302C18.1272 48.9633 18.0603 48.8294 18.0603 48.6957L18.1272 23.7458C18.1272 23.4783 18.261 23.2107 18.4616 23.0769L34.2476 10.903C34.4483 10.7692 34.582 10.7023 34.7827 10.7023ZM20.4683 46.756H21.1372H27.1573H27.8262V46.0871V39.5987H27.8931L28.4282 41.9398C29.2977 45.485 31.6389 47.2241 35.3847 47.2241C36.2543 47.2241 37.1907 47.0234 38.1272 46.689L38.5285 46.5552V46.0871V41.6054V40.8696L37.7927 41.0033C37.1238 41.0702 36.8563 41.1371 36.6556 41.1371C36.0536 41.1371 35.6523 41.0702 35.3847 40.8696C35.1171 40.6689 34.9165 40.2676 34.7158 39.7993C34.582 39.398 34.5151 38.9298 34.3814 38.4615C35.5185 37.9264 36.3212 37.2575 36.9232 36.4549C37.5921 35.5184 37.9265 34.3144 37.9265 32.9766C37.9265 31.7057 37.5252 30.6355 36.7894 29.6321C36.0536 28.6957 34.9834 27.9599 33.7125 27.4916C32.4416 26.9565 30.97 26.7559 29.2977 26.7559H21.1372H20.4683V27.4248V46.3545V46.756ZM45.3513 47.0903C47.4917 47.0903 49.2977 45.3512 49.2977 43.1438C49.2977 40.9365 47.5586 39.1973 45.3513 39.1973C43.2108 39.1973 41.4048 40.9365 41.4048 43.1438C41.4048 45.3512 43.2108 47.0903 45.3513 47.0903ZM34.7827 10.0334C34.4483 10.0334 34.1138 10.1672 33.8462 10.3679L17.9934 22.6087C17.5921 22.8763 17.3914 23.3445 17.3914 23.8127V48.6957C17.3914 49.2977 17.9265 49.8328 18.5285 49.8328H51.1038C51.7058 49.8328 52.2409 49.2977 52.2409 48.6957V23.8127C52.2409 23.3445 52.0402 22.8763 51.6389 22.6087L35.7192 10.3679C35.4516 10.1672 35.1171 10.0334 34.7827 10.0334ZM21.1372 46.0871V27.1572H29.4315C31.0369 27.1572 32.3747 27.4248 33.5787 27.893C34.7827 28.3612 35.7192 29.0301 36.388 29.8328C37.0569 30.7023 37.3914 31.6388 37.3914 32.7759C37.3914 33.9799 37.0569 35.0502 36.4549 35.8528C35.8529 36.6555 34.9834 37.3244 33.7125 37.8595C33.8462 38.5284 33.98 39.1973 34.1807 39.7324C34.3814 40.4013 34.7158 40.9365 35.1171 41.204C35.5185 41.4716 36.0536 41.6054 36.7894 41.6054C37.0569 41.6054 37.4583 41.5385 37.9934 41.4716V45.9532C37.1238 46.2876 36.3212 46.4214 35.4516 46.4214C32.0402 46.4214 29.8998 44.8161 29.0971 41.6722L28.4282 38.8629H27.1573V46.0201H21.1372V46.0871ZM45.3513 46.4214C43.5452 46.4214 42.0737 44.9498 42.0737 43.1438C42.0737 41.3378 43.5452 39.8662 45.3513 39.8662C47.1573 39.8662 48.6289 41.3378 48.6289 43.1438C48.6289 45.0167 47.1573 46.4214 45.3513 46.4214Z" fill="#DE225C"/>
<path d="M174.682 46.4443C172.809 46.4443 171.136 46.1767 169.732 45.6416L170.334 42.4309C171.605 42.8991 172.875 43.0998 174.079 43.0998C174.949 43.0998 175.417 42.8323 175.417 42.364C175.417 42.0965 175.284 41.8958 175.016 41.762C174.748 41.6282 174.28 41.4276 173.544 41.3607C172.073 41.0931 171.003 40.558 170.334 39.8891C169.665 39.2202 169.397 38.2169 169.397 37.0129C169.464 35.6082 169.999 34.5379 171.069 33.7353C172.14 32.9995 173.544 32.5981 175.417 32.5981C176.354 32.5981 177.156 32.665 177.825 32.7988C178.494 32.9326 179.096 33.0664 179.698 33.3339L179.163 36.5446C178.628 36.344 178.093 36.2102 177.424 36.0764C176.822 35.9426 176.287 35.9426 175.886 35.9426C175.284 35.9426 174.882 36.0095 174.615 36.1433C174.414 36.2771 174.28 36.4109 174.28 36.6784C174.28 37.0798 174.748 37.3473 175.618 37.4811C177.223 37.7486 178.494 38.2838 179.297 38.9527C180.1 39.6884 180.501 40.6249 180.501 41.8958C180.501 43.3005 180.033 44.4376 179.029 45.2403C177.959 46.043 176.554 46.4443 174.682 46.4443Z" fill="#222222"/>
<path d="M164.189 46.4443C162.583 46.4443 161.379 45.9761 160.51 45.1065C159.64 44.1701 159.172 42.966 159.172 41.3607V36.1433H157.433V32.7988H159.573L162.048 27.7152H164.791V32.7988H167.934V36.1433H164.791V40.6918C164.791 41.16 164.924 41.4945 165.192 41.762C165.46 42.0296 165.861 42.1634 166.396 42.1634C166.864 42.1634 167.332 42.0296 167.734 41.8289L167.934 45.5747C167.466 45.8423 166.931 46.043 166.195 46.2436C165.526 46.3774 164.858 46.4443 164.189 46.4443Z" fill="#222222"/>
<path d="M148.845 46.2398C147.44 46.2398 146.169 45.9723 145.032 45.5041C143.962 45.0358 143.092 44.3 142.49 43.3636C141.888 42.4271 141.554 41.4238 141.554 40.2198V32.5944H147.106V40.2198C147.106 40.8218 147.239 41.29 147.574 41.6245C147.908 41.9589 148.31 42.0927 148.845 42.0927C149.313 42.0927 149.714 41.9589 150.049 41.6245C150.383 41.29 150.517 40.8218 150.517 40.2198V32.5944H155.935V40.2198C155.935 41.4238 155.601 42.4271 154.999 43.3636C154.397 44.2332 153.594 44.9689 152.524 45.4372C151.453 45.9723 150.249 46.2398 148.845 46.2398Z" fill="#222222"/>
<path d="M132.273 46.4444C130.801 46.4444 129.397 46.1767 128.26 45.5747C127.123 44.9727 126.186 44.17 125.517 43.0998C124.848 42.0296 124.581 40.8257 124.581 39.4879C124.581 38.1501 124.915 36.9461 125.584 35.8758C126.253 34.8056 127.189 34.0028 128.327 33.4008C129.531 32.7988 130.868 32.5312 132.34 32.5312C133.878 32.5312 135.216 32.7988 136.353 33.4008C137.557 34.0028 138.427 34.8055 139.096 35.8088C139.765 36.8791 140.032 38.0162 140.032 39.4209C140.032 40.8256 139.698 42.0296 139.029 43.0998C138.36 44.17 137.49 44.9727 136.286 45.5747C135.149 46.1767 133.812 46.4444 132.273 46.4444ZM132.34 42.431C133.076 42.431 133.678 42.1635 134.146 41.6283C134.614 41.0932 134.882 40.3574 134.882 39.4879C134.882 38.6183 134.614 37.9493 134.146 37.4142C133.678 36.8791 133.076 36.6115 132.34 36.6115C131.604 36.6115 131.002 36.8791 130.534 37.4142C130.066 37.9493 129.865 38.6183 129.865 39.4879C129.865 40.3574 130.066 41.0262 130.534 41.6283C131.002 42.1635 131.604 42.431 132.34 42.431Z" fill="#222222"/>
<path d="M119.384 46.5172C117.779 46.5172 116.575 46.049 115.705 45.1794C114.835 44.2429 114.367 43.0389 114.367 41.4336V36.2162H112.628V32.8717H114.769L117.31 27.7881H120.053V32.8717H123.197V36.2162H119.986V40.7647C119.986 41.2329 120.12 41.5673 120.387 41.8349C120.655 42.1025 121.056 42.2362 121.591 42.2362C122.06 42.2362 122.528 42.1025 122.929 41.9018L123.13 45.6476C122.662 45.9152 122.126 46.1158 121.391 46.3165C120.722 46.4503 120.053 46.5172 119.384 46.5172Z" fill="#222222"/>
<path d="M95.3652 32.9288H100.783V35.6713C101.854 33.5977 103.459 32.5275 105.733 32.5275C107.472 32.5275 108.81 33.1295 109.747 34.4004C110.75 35.6044 111.218 37.2766 111.218 39.484V46.1729H105.599V38.9489C105.599 38.1462 105.399 37.6111 105.064 37.2097C104.73 36.8084 104.262 36.6077 103.726 36.6077C103.325 36.6077 102.857 36.7415 102.456 37.0091C102.054 37.2766 101.72 37.678 101.452 38.2131C101.185 38.7482 101.051 39.3502 101.051 39.9522V46.2398H95.3652V32.9288Z" fill="#222222"/>
<path d="M87.5366 46.44C86.065 46.44 84.7272 46.1725 83.5901 45.5705C82.453 44.9685 81.5834 44.1658 80.9145 43.0955C80.2456 42.0253 79.978 40.8213 79.978 39.5504C79.978 38.2126 80.3125 37.0086 80.9814 35.9384C81.6503 34.8681 82.5199 34.0654 83.657 33.4634C84.7941 32.8614 86.065 32.5939 87.4028 32.5939C88.7406 32.5939 89.8777 32.8614 90.8142 33.4634C91.7506 34.0654 92.4864 34.8012 92.9546 35.8046C93.4229 36.8079 93.6235 37.8782 93.6235 39.1491C93.6235 39.4835 93.6235 39.6842 93.5566 39.818L85.5299 40.8882C85.7306 41.4902 86.065 41.9584 86.6001 42.226C87.0683 42.4935 87.7372 42.6273 88.473 42.6273C89.677 42.6273 91.0148 42.2929 92.4195 41.6909L93.0884 45.3029C91.3493 46.0387 89.5433 46.44 87.5366 46.44ZM89.4095 37.5437C89.1419 36.4066 88.473 35.8715 87.4028 35.8715C86.7339 35.8715 86.2657 36.139 85.8643 36.6072C85.463 37.0755 85.2623 37.7444 85.2623 38.4802L89.4095 37.5437Z" fill="#222222"/>
<path d="M75.9314 46.6406C72.5869 46.6406 70.5133 45.1021 69.7775 41.9583L69.1086 39.2158H67.8377V46.2392H61.9514V27.7777H70.1119C71.6504 27.7777 72.9882 27.9784 74.1922 28.4466C75.3962 28.9148 76.2658 29.5168 76.9347 30.3195C77.6036 31.1222 77.8712 32.0586 77.8712 33.1958C77.8712 34.3998 77.6036 35.4031 77.0016 36.2058C76.3996 37.0085 75.53 37.6774 74.326 38.2125C74.4598 38.8814 74.5936 39.4834 74.7273 40.0854C74.928 40.7543 75.2625 41.2225 75.5969 41.4901C75.9982 41.7576 76.5334 41.8914 77.2023 41.8914C77.4698 41.8914 77.8711 41.8245 78.4063 41.7576V46.1055C77.6036 46.5068 76.734 46.6406 75.9314 46.6406ZM68.8411 35.47C70.1788 35.47 71.1153 35.3362 71.6504 35.0687C72.1855 34.7342 72.4531 34.266 72.4531 33.5302C72.4531 32.9282 72.2524 32.46 71.7842 32.1924C71.3829 31.9249 70.6471 31.7242 69.7106 31.7242H67.8377L67.833 35.4711L68.8411 35.47Z" fill="#222222"/>
<path d="M183.375 31.1362V28.3269H182.371V27.7917H184.98V28.3269H183.977V31.1362H183.375ZM185.515 31.1362V27.7917H186.117L187.388 29.7984L188.659 27.7917H189.261V31.1362H188.659V28.7951L187.589 30.4004H187.188L186.117 28.7951V31.1362H185.515Z" fill="#222222"/>
</svg>
