<svg width="24" height="24" viewBox="0 0 24 24" fill="none" xmlns="http://www.w3.org/2000/svg">
<g clip-path="url(#clip0_1779_9908)">
<path d="M22.5313 3.51563H1.46869C0.658813 3.51563 0 4.17444 0 4.98431V17.7025C0 18.5123 0.658813 19.1711 1.46869 19.1711H2.07623V19.8113C2.07623 20.1996 2.39099 20.5144 2.77936 20.5144C3.16772 20.5144 3.48248 20.1996 3.48248 19.8113V19.1711H20.5175V19.8113C20.5175 20.1996 20.8323 20.5144 21.2206 20.5144C21.609 20.5144 21.9238 20.1996 21.9238 19.8113V19.1711H22.5313C23.3412 19.1711 24 18.5123 24 17.7025V4.98431C24 4.17444 23.3412 3.51563 22.5313 3.51563ZM1.40625 17.7025V4.98431C1.40625 4.94989 1.43427 4.92188 1.46869 4.92188H17.0162V17.7649H1.46869C1.43427 17.7649 1.40625 17.7369 1.40625 17.7025ZM22.5938 17.7025C22.5938 17.7369 22.5657 17.7649 22.5313 17.7649H18.4224V4.92188H22.5313C22.5657 4.92188 22.5938 4.94989 22.5938 4.98431V17.7025Z" fill="#5E5E5E"/>
<path d="M13.8598 5.95825H4.56262C3.39368 5.95825 2.44263 6.9093 2.44263 8.07825V14.6085C2.44263 15.7775 3.39368 16.7285 4.56262 16.7285H13.8598C15.0287 16.7285 15.9796 15.7775 15.9796 14.6085V8.07825C15.9796 6.9093 15.0286 5.95825 13.8598 5.95825ZM14.5734 14.6085C14.5734 15.002 14.2533 15.3221 13.8596 15.3221H4.56262C4.16913 15.3221 3.84888 15.002 3.84888 14.6085V8.07825C3.84888 7.68475 4.16913 7.3645 4.56262 7.3645H13.8598C14.2533 7.3645 14.5734 7.68475 14.5734 8.07825V14.6085Z" fill="#5E5E5E"/>
<path d="M21.5766 13.9648C21.5766 14.555 21.0981 15.0334 20.508 15.0334C19.9178 15.0334 19.4394 14.555 19.4394 13.9648C19.4394 13.3747 19.9178 12.8962 20.508 12.8962C21.0981 12.8962 21.5766 13.3747 21.5766 13.9648Z" fill="#5E5E5E"/>
<path d="M21.5766 10.8313C21.5766 11.4214 21.0981 11.8999 20.508 11.8999C19.9178 11.8999 19.4394 11.4214 19.4394 10.8313C19.4394 10.2411 19.9178 9.7627 20.508 9.7627C21.0981 9.7627 21.5766 10.2411 21.5766 10.8313Z" fill="#5E5E5E"/>
<path d="M21.2205 6.95007H19.7955C19.4073 6.95007 19.0924 7.26483 19.0924 7.6532C19.0924 8.04156 19.4073 8.35632 19.7955 8.35632H21.2205C21.6088 8.35632 21.9236 8.04156 21.9236 7.6532C21.9236 7.26483 21.6088 6.95007 21.2205 6.95007Z" fill="#5E5E5E"/>
</g>
<defs>
<clipPath id="clip0_1779_9908">
<rect width="24" height="24" fill="white"/>
</clipPath>
</defs>
</svg>
