<svg width="24" height="24" viewBox="0 0 24 24" fill="none" xmlns="http://www.w3.org/2000/svg">
<g clip-path="url(#clip0_1779_9884)">
<path d="M20.4844 0H3.51562C1.57711 0 0 1.57711 0 3.51562V20.4844C0 22.4229 1.57711 24 3.51562 24H20.4844C22.4229 24 24 22.4229 24 20.4844V3.51562C24 1.57711 22.4229 0 20.4844 0ZM22.5938 20.4844C22.5938 21.6475 21.6475 22.5938 20.4844 22.5938H3.51562C2.35252 22.5938 1.40625 21.6475 1.40625 20.4844V3.51562C1.40625 2.35252 2.35252 1.40625 3.51562 1.40625H20.4844C21.6475 1.40625 22.5938 2.35252 22.5938 3.51562V20.4844Z" fill="#5E5E5E"/>
<path d="M18.3681 8.877C18.3011 7.59722 17.7143 6.40992 16.7158 5.53383C15.7493 4.68577 14.5058 4.22344 13.2144 4.22344L7.73438 4.21875C7.34606 4.21875 7.03125 4.53356 7.03125 4.92188V19.0781C7.03125 19.4664 7.34606 19.7812 7.73438 19.7812H10.5469C10.9352 19.7812 11.25 19.4664 11.25 19.0781V14.0625H13.4531C14.8167 14.0625 16.0848 13.5176 17.0237 12.5282C17.9622 11.5394 18.4396 10.2427 18.3681 8.877ZM16.0037 11.5602C15.333 12.267 14.4271 12.6562 13.4531 12.6562H10.5469C10.1586 12.6562 9.84375 12.9711 9.84375 13.3594V18.375H8.4375V5.61563H13.2144C15.1858 5.61563 16.8677 7.11684 16.9637 8.95055C17.0149 9.92714 16.674 10.854 16.0037 11.5602Z" fill="#5E5E5E"/>
<path d="M13.4531 7.03125H10.5469C10.1586 7.03125 9.84375 7.34606 9.84375 7.73438V10.5469C9.84375 10.9352 10.1586 11.25 10.5469 11.25H13.4531C14.6162 11.25 15.5625 10.3037 15.5625 9.14062C15.5625 7.97752 14.6162 7.03125 13.4531 7.03125ZM13.4531 9.84375H11.25V8.4375H13.4531C13.8408 8.4375 14.1562 8.75292 14.1562 9.14062C14.1562 9.52833 13.8408 9.84375 13.4531 9.84375Z" fill="#5E5E5E"/>
</g>
<defs>
<clipPath id="clip0_1779_9884">
<rect width="24" height="24" fill="white"/>
</clipPath>
</defs>
</svg>
