<svg width="24" height="24" viewBox="0 0 24 24" fill="none" xmlns="http://www.w3.org/2000/svg">
<g clip-path="url(#clip0_1779_9902)">
<path d="M21.8906 19.781H20.1125C19.8309 19.781 19.5772 19.6138 19.4663 19.3549L17.914 15.7329C17.1374 13.9208 15.3617 12.7499 13.3902 12.7499H12.6564V7.12503H13.3595C14.0001 7.12503 14.3081 6.33149 13.831 5.90028L7.50303 0.181685C7.23533 -0.0602362 6.82789 -0.0602362 6.56019 0.181685L0.232215 5.90028C-0.245018 6.33153 0.0630907 7.12503 0.703636 7.12503H1.40676C1.40676 7.27953 1.40676 22.4391 1.40676 22.5934H0.703636C0.315325 22.5934 0.000512667 22.9082 0.000512667 23.2965C0.000512667 23.6848 0.315325 23.9996 0.703636 23.9996H2.10984C2.49815 23.9996 2.81296 23.6848 2.81296 23.2965V19.781H4.21916V23.2965C4.21916 23.6848 4.53397 23.9996 4.92228 23.9996C5.3106 23.9996 5.62541 23.6848 5.62541 23.2965V22.5934H8.43786V23.2965C8.43786 23.6848 8.75267 23.9996 9.14098 23.9996C9.52929 23.9996 9.8441 23.6848 9.8441 23.2965V19.781H11.2503V23.2965C11.2503 23.6848 11.5651 23.9996 11.9534 23.9996H13.3596C13.7479 23.9996 14.0628 23.6848 14.0628 23.2965C14.0628 22.9082 13.7479 22.5934 13.3596 22.5934H12.6565C12.6565 22.3212 12.6565 17.1986 12.6565 16.9685H13.6377C13.9194 16.9685 14.173 17.1358 14.284 17.3947L16.2015 21.869C16.7563 23.1633 18.0246 23.9997 19.4328 23.9997H21.8907C23.0538 23.9997 24 23.0534 24 21.8903C23.9999 20.7245 23.0565 19.781 21.8906 19.781ZM4.21911 18.3748H2.81291V16.9686H4.21911V18.3748ZM8.43776 21.1872H5.62531V19.781H8.43776V21.1872ZM8.43776 18.3748H5.62531V16.9686H8.43776V18.3748ZM11.2502 18.3748H9.84401V16.9686H11.2502V18.3748ZM11.2502 15.5624H2.81291V7.12508H11.2502V15.5624ZM2.53026 5.71883L7.03156 1.65103L11.5329 5.71883H2.53026ZM21.8906 22.5934H19.4326C18.5877 22.5934 17.8267 22.0916 17.4939 21.3151L15.5764 16.8407C15.2435 16.0641 14.4825 15.5624 13.6376 15.5624H12.6564V14.1562H13.3902C14.7984 14.1562 16.0668 14.9926 16.6215 16.2869L18.1737 19.9088C18.5066 20.6855 19.2676 21.1873 20.1125 21.1872H21.8906C22.2792 21.1872 22.5937 21.5017 22.5937 21.8903C22.5937 22.278 22.2782 22.5934 21.8906 22.5934Z" fill="#5E5E5E"/>
<path d="M7.03156 8.53137C5.4808 8.53137 4.21912 9.79301 4.21912 11.3438C4.21912 12.8946 5.48075 14.1563 7.03156 14.1563C8.58233 14.1563 9.84401 12.8946 9.84401 11.3438C9.84401 9.79306 8.58233 8.53137 7.03156 8.53137ZM7.03156 12.75C6.25616 12.75 5.62536 12.1192 5.62536 11.3438C5.62536 10.5685 6.25621 9.93762 7.03156 9.93762C7.80697 9.93762 8.43776 10.5685 8.43776 11.3438C8.43776 12.1192 7.80697 12.75 7.03156 12.75Z" fill="#5E5E5E"/>
</g>
<defs>
<clipPath id="clip0_1779_9902">
<rect width="24" height="24" fill="white"/>
</clipPath>
</defs>
</svg>
