<svg width="24" height="24" viewBox="0 0 24 24" fill="none" xmlns="http://www.w3.org/2000/svg">
<g clip-path="url(#clip0_1779_9887)">
<path d="M21.838 12.6921L20.9493 13.2133C20.5745 13.4331 20.1103 13.4306 19.7378 13.2066L18.9072 12.7073C18.0928 12.2175 17.0777 12.2119 16.2579 12.6926L15.3701 13.2133C14.9952 13.4331 14.531 13.4306 14.1586 13.2066L13.3279 12.7073C13.2442 12.6569 13.1583 12.612 13.0707 12.5719V2.9131C13.0707 2.08214 13.7467 1.40625 14.5777 1.40625C15.4086 1.40625 16.0846 2.08224 16.0846 2.91315V4.50282H17.4908V2.9131C17.4908 1.30683 16.1841 0 14.5777 0C12.9714 0 11.6646 1.30683 11.6646 2.9131V8.50539H5.75377V2.9131C5.75377 2.08219 6.42976 1.40625 7.26067 1.40625C8.09157 1.40625 8.76756 2.08224 8.76756 2.91315V4.50282H10.1738V2.9131C10.1738 1.30683 8.86698 0 7.26067 0C5.65435 0 4.34757 1.30683 4.34757 2.9131V13.1336L4.21186 13.2132C3.837 13.433 3.37275 13.4305 3.00038 13.2065L2.17523 12.7105L1.45059 13.9157L2.27573 14.4118C3.08958 14.9012 4.10405 14.9067 4.92319 14.4263L5.81101 13.9057C6.18643 13.6855 6.65134 13.6881 7.02432 13.9124L7.85495 14.4117C8.66879 14.9012 9.68322 14.9067 10.5024 14.4263L11.3901 13.9057C11.7656 13.6855 12.2305 13.6881 12.6034 13.9124L13.4341 14.4117C13.8452 14.659 14.3075 14.7827 14.7701 14.7827C15.223 14.7827 15.6762 14.664 16.0816 14.4263L16.9694 13.9057C17.3448 13.6856 17.8097 13.6881 18.1827 13.9124L19.0133 14.4118C19.8272 14.9011 20.8416 14.9067 21.6607 14.4263L22.5495 13.9052L21.838 12.6921ZM11.6646 12.3567C11.3224 12.4001 10.9868 12.512 10.6788 12.6927L9.79098 13.2133C9.41612 13.4332 8.95197 13.4306 8.5795 13.2067L7.74887 12.7073C7.14076 12.3417 6.42076 12.246 5.75373 12.4211V9.91164H11.6646V12.3567Z" fill="#5E5E5E"/>
<path d="M21.8381 17.3857L20.9493 17.907C20.5745 18.1268 20.1103 18.1242 19.7378 17.9003L18.9072 17.4008C18.0928 16.9112 17.0776 16.9057 16.2579 17.3863L15.3701 17.9069C14.9953 18.1268 14.531 18.1242 14.1587 17.9002L13.3279 17.4008C12.5136 16.911 11.4984 16.9056 10.6788 17.3863L9.79094 17.9069C9.41608 18.1267 8.95188 18.1242 8.5795 17.9002L7.74883 17.4007C6.93432 16.911 5.9192 16.9055 5.09959 17.3862L4.21177 17.9068C3.83691 18.1266 3.37271 18.1241 3.00033 17.9002L2.17519 17.404L1.4505 18.6091L2.27578 19.1053C3.08963 19.5946 4.10405 19.6002 4.92319 19.1198L5.81101 18.5992C6.18639 18.379 6.65129 18.3816 7.02428 18.6059L7.85495 19.1054C8.66884 19.5947 9.68327 19.6002 10.5024 19.1199L11.3902 18.5993C11.7656 18.3789 12.2305 18.3816 12.6034 18.6059L13.4341 19.1054C13.8453 19.3525 14.3076 19.4763 14.7701 19.4763C15.2231 19.4763 15.6762 19.3575 16.0816 19.1198L16.9694 18.5992C17.3448 18.3791 17.8096 18.3815 18.1827 18.6059L19.0134 19.1054C19.8273 19.5947 20.8417 19.6002 21.6607 19.1199L22.5495 18.5987L21.8381 17.3857Z" fill="#5E5E5E"/>
<path d="M21.8379 21.9093L20.9493 22.4305C20.5745 22.6503 20.1103 22.6478 19.7378 22.4238L18.9072 21.9244C18.0927 21.4348 17.0776 21.4292 16.2579 21.9099L15.3701 22.4305C14.9952 22.6503 14.5311 22.6478 14.1586 22.4238L13.3279 21.9245C12.5136 21.4347 11.4984 21.4292 10.6788 21.9099L9.79094 22.4305C9.41608 22.6503 8.95192 22.6478 8.57945 22.4238L7.74882 21.9244C6.93432 21.4347 5.91919 21.4292 5.09958 21.9099L4.21177 22.4305C3.83691 22.6503 3.3727 22.6478 3.00028 22.4238L2.17523 21.9277L1.45059 23.1329L2.27573 23.629C3.08958 24.1184 4.10405 24.1239 4.92315 23.6436L5.81096 23.1229C6.18634 22.9028 6.65124 22.9053 7.02423 23.1296L7.85485 23.6289C8.6687 24.1184 9.68317 24.124 10.5023 23.6435L11.3901 23.1229C11.7655 22.9026 12.2303 22.9052 12.6033 23.1295L13.434 23.6289C13.8452 23.8762 14.3074 23.9999 14.77 23.9999C15.223 23.9999 15.6762 23.8812 16.0815 23.6435L16.9693 23.1228C17.3448 22.9027 17.8097 22.9053 18.1826 23.1295L19.0132 23.6289C19.8271 24.1183 20.8415 24.1239 21.6606 23.6435L22.5494 23.1223L21.8379 21.9093Z" fill="#5E5E5E"/>
</g>
<defs>
<clipPath id="clip0_1779_9887">
<rect width="24" height="24" fill="white"/>
</clipPath>
</defs>
</svg>
