<svg width="16" height="16" viewBox="0 0 16 16" fill="none" xmlns="http://www.w3.org/2000/svg">
<g clip-path="url(#clip0_1273_890)">
<path d="M0 16H13.1875V11.2812H11.3928C11.5863 10.7356 12.1076 10.3438 12.7188 10.3438H13.1875V8.46875H16V0H0V16ZM12.25 7.53125V9.45334C11.1816 9.67112 10.375 10.6182 10.375 11.75V12.2188H12.25V15.0625H9.40625V13.1562H8.46875V15.0625H0.9375V8.46875H3.75V13.1562H6.59375V12.2188H4.6875V8.46875H8.46875V10.3438H9.40625V7.53125H0.9375V4.71875H2.8125V2.89797C3.35256 3.10031 3.75 3.63781 3.75 4.25V4.71875H12.25V4.25C12.25 3.63781 12.6475 3.10028 13.1875 2.89797V4.71875H15.0625V7.53125H12.25ZM15.0625 3.78125H14.125V1.875H13.6562C12.5054 1.875 11.5703 2.72169 11.3587 3.78125H9.40625V0.9375H15.0625V3.78125ZM8.46875 0.9375V3.78125H4.64131C4.42981 2.72266 3.4955 1.875 2.34375 1.875H1.875V3.78125H0.9375V0.9375H8.46875Z" fill="#5E5E5E"/>
</g>
<defs>
<clipPath id="clip0_1273_890">
<rect width="16" height="16" fill="white"/>
</clipPath>
</defs>
</svg>
