<svg width="24" height="24" viewBox="0 0 24 24" fill="none" xmlns="http://www.w3.org/2000/svg">
<path d="M4.02421 15.4201C3.93412 14.9355 3.35095 14.6941 2.94468 14.9729C2.45385 15.2959 2.56692 16.0633 3.13082 16.2301C3.63107 16.3879 4.13207 15.9332 4.02421 15.4201Z" fill="#5E5E5E"/>
<path d="M3.33492 7.35742C3.58129 7.35742 3.82424 7.37898 4.05717 7.42141C5.90353 7.75806 7.58432 8.64095 8.91792 9.97455C10.2515 11.3082 11.1344 12.989 11.4711 14.8354C11.5135 15.0682 11.535 15.3111 11.535 15.5576C11.535 15.9459 11.8499 16.2607 12.2382 16.2607C12.6265 16.2607 12.9413 15.9459 12.9413 15.5576C12.9413 15.2268 12.9121 14.8989 12.8545 14.5831C12.4663 12.4543 11.4489 10.5168 9.91228 8.98023C8.37562 7.44358 6.43818 6.4262 4.30935 6.03798C3.99346 5.98037 3.66562 5.95117 3.33487 5.95117C2.94656 5.95117 2.63174 6.26598 2.63174 6.6543C2.63174 7.04261 2.94656 7.35742 3.33492 7.35742Z" fill="#5E5E5E"/>
<path d="M3.42703 8.7455C3.04243 8.69473 2.68871 8.96544 2.63785 9.35037C2.58694 9.73536 2.85774 10.0887 3.24272 10.1396C6.1081 10.5185 8.37394 12.7843 8.75288 15.6498C8.79961 16.0034 9.10168 16.2608 9.44907 16.2608C9.47977 16.2608 9.5108 16.2588 9.54211 16.2547C9.92705 16.2038 10.1978 15.8504 10.1469 15.4655C9.68489 11.9709 6.92157 9.20755 3.42703 8.7455Z" fill="#5E5E5E"/>
<path d="M3.18234 12.9823C4.53806 13.2837 5.60883 14.3545 5.91014 15.7101C5.98298 16.0378 6.27352 16.2608 6.59588 16.2608C6.64636 16.2608 6.69773 16.2553 6.74911 16.2439C7.12819 16.1597 7.3672 15.784 7.28292 15.405C6.86363 13.5187 5.3738 12.0289 3.4875 11.6095C3.10828 11.5253 2.73281 11.7643 2.64858 12.1434C2.56425 12.5225 2.80327 12.898 3.18234 12.9823Z" fill="#5E5E5E"/>
<path d="M23.2969 2.74658H0.703125C0.314812 2.74658 0 3.06139 0 3.44971V18.27C0 18.6583 0.314812 18.9732 0.703125 18.9732H3.66436L2.94853 20.1946C2.75217 20.5296 2.86463 20.9604 3.19964 21.1567C3.31139 21.2222 3.43369 21.2533 3.55448 21.2533C3.79584 21.2533 4.03087 21.1289 4.16175 20.9056L5.29425 18.9732H18.7057L19.8382 20.9056C19.9691 21.1289 20.2041 21.2533 20.4455 21.2533C20.5662 21.2533 20.6887 21.2222 20.8003 21.1567C21.1353 20.9604 21.2478 20.5296 21.0514 20.1946L20.3356 18.9732H23.2969C23.6852 18.9732 24 18.6583 24 18.27V3.44966C24 3.06135 23.6852 2.74658 23.2969 2.74658ZM22.5938 17.5669H1.40625V4.15279H22.5938V17.5669Z" fill="#5E5E5E"/>
</svg>
