<svg width="16" height="16" viewBox="0 0 16 16" fill="none" xmlns="http://www.w3.org/2000/svg">
<g clip-path="url(#clip0_1273_905)">
<path d="M15.5312 15.0625H15.3811V6.27527H15.5312C15.7902 6.27527 16 6.06543 16 5.80652C16 5.54761 15.7902 5.33777 15.5312 5.33777H9.40784V0.9375H9.58862C9.84753 0.9375 10.0574 0.727661 10.0574 0.46875C10.0574 0.209839 9.84753 0 9.58862 0H0.46875C0.209839 0 0 0.209839 0 0.46875C0 0.727661 0.209839 0.9375 0.46875 0.9375H0.657837V15.0625H0.46875C0.209839 15.0625 0 15.2723 0 15.5312C0 15.7902 0.209839 16 0.46875 16H15.5312C15.7902 16 16 15.7902 16 15.5312C16 15.2723 15.7902 15.0625 15.5312 15.0625ZM7.43079 15.0625V13.0128C7.43079 12.7539 7.22095 12.5441 6.96204 12.5441C6.70325 12.5441 6.49329 12.7539 6.49329 13.0128V15.0625H5.49329V13.0128C5.49329 12.7539 5.28345 12.5441 5.02454 12.5441C4.76575 12.5441 4.55579 12.7539 4.55579 13.0128V15.0625H3.55579V13.0128C3.55579 12.7539 3.34595 12.5441 3.08704 12.5441C2.82825 12.5441 2.61829 12.7539 2.61829 13.0128V15.0625H1.59534V0.9375H8.47034V15.0625H7.43079ZM13.3632 15.0625V13.2103C13.3632 12.9514 13.1533 12.7416 12.8944 12.7416C12.6356 12.7416 12.4257 12.9514 12.4257 13.2103V15.0625H11.4257V13.2103C11.4257 12.9514 11.2158 12.7416 10.9569 12.7416C10.6981 12.7416 10.4882 12.9514 10.4882 13.2103V15.0625H9.40784V6.29688H14.4436V15.0625H13.3632Z" fill="#5E5E5E"/>
<path d="M5.03271 1.89941C4.7738 1.89941 4.56396 2.10925 4.56396 2.36816V3.15662C4.56396 3.41553 4.7738 3.62537 5.03271 3.62537C5.29163 3.62537 5.50146 3.41553 5.50146 3.15662V2.36816C5.50146 2.10925 5.29163 1.89941 5.03271 1.89941Z" fill="#5E5E5E"/>
<path d="M3.09521 1.89941C2.8363 1.89941 2.62646 2.10925 2.62646 2.36816V3.15662C2.62646 3.41553 2.8363 3.62537 3.09521 3.62537C3.35413 3.62537 3.56396 3.41553 3.56396 3.15662V2.36816C3.56396 2.10925 3.35413 1.89941 3.09521 1.89941Z" fill="#5E5E5E"/>
<path d="M6.97021 1.89941C6.7113 1.89941 6.50146 2.10925 6.50146 2.36816V3.15662C6.50146 3.41553 6.7113 3.62537 6.97021 3.62537C7.22913 3.62537 7.43896 3.41553 7.43896 3.15662V2.36816C7.43896 2.10925 7.22913 1.89941 6.97021 1.89941Z" fill="#5E5E5E"/>
<path d="M5.02881 4.57097C4.7699 4.57097 4.56006 4.78081 4.56006 5.03972V5.82829C4.56006 6.08708 4.7699 6.29704 5.02881 6.29704C5.28772 6.29704 5.49756 6.08708 5.49756 5.82829V5.03972C5.49756 4.78081 5.28772 4.57097 5.02881 4.57097Z" fill="#5E5E5E"/>
<path d="M3.09131 4.57097C2.8324 4.57097 2.62256 4.78081 2.62256 5.03972V5.82829C2.62256 6.08708 2.8324 6.29704 3.09131 6.29704C3.35022 6.29704 3.56006 6.08708 3.56006 5.82829V5.03972C3.56006 4.78081 3.35022 4.57097 3.09131 4.57097Z" fill="#5E5E5E"/>
<path d="M6.96631 4.57097C6.7074 4.57097 6.49756 4.78081 6.49756 5.03972V5.82829C6.49756 6.08708 6.7074 6.29704 6.96631 6.29704C7.22522 6.29704 7.43506 6.08708 7.43506 5.82829V5.03972C7.43506 4.78081 7.22522 4.57097 6.96631 4.57097Z" fill="#5E5E5E"/>
<path d="M5.02881 7.22331C4.7699 7.22331 4.56006 7.43315 4.56006 7.69206V8.48051C4.56006 8.73943 4.7699 8.94926 5.02881 8.94926C5.28772 8.94926 5.49756 8.73943 5.49756 8.48051V7.69206C5.49756 7.43315 5.28772 7.22331 5.02881 7.22331Z" fill="#5E5E5E"/>
<path d="M3.09131 7.22331C2.8324 7.22331 2.62256 7.43315 2.62256 7.69206V8.48051C2.62256 8.73943 2.8324 8.94926 3.09131 8.94926C3.35022 8.94926 3.56006 8.73943 3.56006 8.48051V7.69206C3.56006 7.43315 3.35022 7.22331 3.09131 7.22331Z" fill="#5E5E5E"/>
<path d="M6.96631 7.22331C6.7074 7.22331 6.49756 7.43315 6.49756 7.69206V8.48051C6.49756 8.73943 6.7074 8.94926 6.96631 8.94926C7.22522 8.94926 7.43506 8.73943 7.43506 8.48051V7.69206C7.43506 7.43315 7.22522 7.22331 6.96631 7.22331Z" fill="#5E5E5E"/>
<path d="M5.02441 9.89453C4.76562 9.89453 4.55566 10.1044 4.55566 10.3633V11.1519C4.55566 11.4106 4.76562 11.6206 5.02441 11.6206C5.28333 11.6206 5.49316 11.4106 5.49316 11.1519V10.3633C5.49316 10.1044 5.28333 9.89453 5.02441 9.89453Z" fill="#5E5E5E"/>
<path d="M3.08691 9.89453C2.82812 9.89453 2.61816 10.1044 2.61816 10.3633V11.1519C2.61816 11.4106 2.82812 11.6206 3.08691 11.6206C3.34583 11.6206 3.55566 11.4106 3.55566 11.1519V10.3633C3.55566 10.1044 3.34583 9.89453 3.08691 9.89453Z" fill="#5E5E5E"/>
<path d="M6.96191 9.89453C6.70312 9.89453 6.49316 10.1044 6.49316 10.3633V11.1519C6.49316 11.4106 6.70312 11.6206 6.96191 11.6206C7.22083 11.6206 7.43066 11.4106 7.43066 11.1519V10.3633C7.43066 10.1044 7.22083 9.89453 6.96191 9.89453Z" fill="#5E5E5E"/>
<path d="M12.8965 7.22331C12.6376 7.22331 12.4277 7.43315 12.4277 7.69206V8.48051C12.4277 8.73943 12.6376 8.94926 12.8965 8.94926C13.1554 8.94926 13.3652 8.73943 13.3652 8.48051V7.69206C13.3652 7.43315 13.1554 7.22331 12.8965 7.22331Z" fill="#5E5E5E"/>
<path d="M10.959 7.22331C10.7001 7.22331 10.4902 7.43315 10.4902 7.69206V8.48051C10.4902 8.73943 10.7001 8.94926 10.959 8.94926C11.2179 8.94926 11.4277 8.73943 11.4277 8.48051V7.69206C11.4277 7.43315 11.2179 7.22331 10.959 7.22331Z" fill="#5E5E5E"/>
<path d="M12.8926 9.89453C12.6338 9.89453 12.4238 10.1044 12.4238 10.3633V11.1519C12.4238 11.4106 12.6338 11.6206 12.8926 11.6206C13.1515 11.6206 13.3613 11.4106 13.3613 11.1519V10.3633C13.3613 10.1044 13.1515 9.89453 12.8926 9.89453Z" fill="#5E5E5E"/>
<path d="M10.9551 9.89453C10.6963 9.89453 10.4863 10.1044 10.4863 10.3633V11.1519C10.4863 11.4106 10.6963 11.6206 10.9551 11.6206C11.214 11.6206 11.4238 11.4106 11.4238 11.1519V10.3633C11.4238 10.1044 11.214 9.89453 10.9551 9.89453Z" fill="#5E5E5E"/>
</g>
<defs>
<clipPath id="clip0_1273_905">
<rect width="16" height="16" fill="white"/>
</clipPath>
</defs>
</svg>
