<svg width="57" height="57" viewBox="0 0 57 57" fill="none" xmlns="http://www.w3.org/2000/svg">
<g id="File / File_Upload">
<path id="Vector" d="M28.5001 42.5V28.5M28.5001 28.5L21.5001 33.1667M28.5001 28.5L35.5001 33.1667M30.8334 7.50203C30.6106 7.5 30.3604 7.5 30.0744 7.5H19.6339C17.0203 7.5 15.7125 7.5 14.7143 8.00864C13.8362 8.45605 13.1228 9.16944 12.6754 10.0475C12.1667 11.0458 12.1667 12.3535 12.1667 14.9671V42.0338C12.1667 44.6474 12.1667 45.9535 12.6754 46.9517C13.1228 47.8298 13.8362 48.5445 14.7143 48.9919C15.7116 49.5 17.0178 49.5 19.6263 49.5L37.374 49.5C39.9824 49.5 41.2867 49.5 42.284 48.9919C43.1621 48.5444 43.8779 47.8298 44.3253 46.9517C44.8334 45.9544 44.8334 44.6501 44.8334 42.0417V22.2599C44.8334 21.9736 44.8334 21.7231 44.8312 21.5M30.8334 7.50203C31.4999 7.50809 31.9215 7.53231 32.324 7.62894C32.8002 7.74326 33.2551 7.93228 33.6726 8.18815C34.1434 8.47665 34.5477 8.88091 35.3542 9.6875L42.647 16.9803C43.4542 17.7874 43.8554 18.1898 44.144 18.6608C44.3999 19.0783 44.5892 19.5336 44.7035 20.0098C44.8001 20.4121 44.8249 20.8339 44.8312 21.5M30.8334 7.50203V14.0333C30.8334 16.6469 30.8334 17.9528 31.3421 18.951C31.7895 19.8291 32.5029 20.5445 33.3809 20.9919C34.3782 21.5 35.6844 21.5 38.2929 21.5H44.8312M44.8312 21.5H44.8339" stroke="#5E5E5E" stroke-width="4" stroke-linecap="round" stroke-linejoin="round"/>
</g>
</svg>
