<svg width="20" height="20" viewBox="0 0 20 20" fill="none" xmlns="http://www.w3.org/2000/svg">
<path d="M12.809 7.99981L8.80903 11.9998L6.80903 9.99981M11.0551 1.45879L12.2761 2.49929C12.5837 2.76143 12.9656 2.91991 13.3685 2.95206L14.9675 3.0795C15.9077 3.15452 16.6544 3.9008 16.7294 4.84093L16.8566 6.44024C16.8887 6.8431 17.0478 7.22559 17.3099 7.53319L18.35 8.75382C18.9617 9.47164 18.9618 10.5275 18.35 11.2454L17.31 12.4662C17.0479 12.7738 16.889 13.1564 16.8569 13.5593L16.729 15.1583C16.6539 16.0984 15.9083 16.8452 14.9682 16.9202L13.3686 17.0478C12.9657 17.08 12.5834 17.2381 12.2758 17.5002L11.0551 18.5407C10.3373 19.1525 9.28076 19.1526 8.56294 18.5409L7.34224 17.5003C7.03463 17.2382 6.65233 17.0798 6.24946 17.0477L4.64985 16.9202C3.70972 16.8452 2.96414 16.0986 2.88911 15.1585L2.76118 13.5594C2.72903 13.1565 2.5702 12.7742 2.30806 12.4666L1.26802 11.2454C0.656294 10.5276 0.656008 9.47203 1.26773 8.7542L2.30871 7.53301C2.57085 7.22541 2.72816 6.84311 2.76031 6.44024L2.88823 4.84112C2.96326 3.90099 3.711 3.15442 4.65113 3.0794L6.24897 2.95196C6.65184 2.91981 7.03433 2.76146 7.34193 2.49932L8.56304 1.45879C9.28087 0.847069 10.3373 0.847069 11.0551 1.45879Z" stroke="#5E5E5E" stroke-width="1.5" stroke-linecap="round" stroke-linejoin="round"/>
</svg>
