<svg width="24" height="24" viewBox="0 0 24 24" fill="none" xmlns="http://www.w3.org/2000/svg">
<path d="M20.8044 0H3.23171C2.08414 0 1.15068 0.931641 1.15068 2.07697V21.923C1.15068 23.0684 2.08414 24 3.23171 24H20.8044C21.952 24 22.8855 23.0684 22.8855 21.923V2.07697C22.8855 0.931641 21.952 0 20.8044 0ZM2.53803 2.07697C2.53803 1.69519 2.84919 1.38464 3.23171 1.38464H20.8044C21.1869 1.38464 21.4981 1.69519 21.4981 2.07697V4.84607H2.53803V2.07697ZM21.4981 21.923C21.4981 22.3048 21.1869 22.6154 20.8044 22.6154H3.23171C2.84919 22.6154 2.53803 22.3048 2.53803 21.923V6.23071H21.4981V21.923Z" fill="#5E5E5E"/>
<path d="M16.6418 2.4231H15.2548C14.8718 2.4231 14.5612 2.73309 14.5612 3.11542C14.5612 3.49774 14.8718 3.80774 15.2548 3.80774H16.6418C17.0249 3.80774 17.3355 3.49774 17.3355 3.11542C17.3355 2.73309 17.0249 2.4231 16.6418 2.4231Z" fill="#5E5E5E"/>
<path d="M20.3421 2.4231H18.9551C18.572 2.4231 18.2614 2.73309 18.2614 3.11542C18.2614 3.49774 18.572 3.80774 18.9551 3.80774H20.3421C20.7252 3.80774 21.0356 3.49774 21.0356 3.11542C21.0356 2.73309 20.7252 2.4231 20.3421 2.4231Z" fill="#5E5E5E"/>
<path d="M5.31274 14.423C5.31274 18.1132 8.32063 21.1154 12.018 21.1154C15.7155 21.1154 18.7234 18.1132 18.7234 14.423C18.7234 14.2434 18.7161 14.0654 18.7021 13.8895C18.7021 13.8885 18.7019 13.8876 18.7019 13.8869C18.4273 10.4465 15.5346 7.73071 12.018 7.73071C8.50153 7.73071 5.60885 10.4465 5.33421 13.8869C5.33403 13.8876 5.33403 13.8885 5.33403 13.8895C5.32008 14.0654 5.31274 14.2434 5.31274 14.423ZM12.018 19.7307C9.20475 19.7307 6.89512 17.5391 6.71202 14.777C6.86173 14.8385 6.99437 14.9198 7.14573 15.0126C7.55486 15.264 8.06433 15.577 9.01211 15.577C9.95988 15.577 10.4692 15.2642 10.8785 15.0128C11.2177 14.8044 11.4626 14.6539 12.0178 14.6539C12.573 14.6539 12.8181 14.8044 13.1573 15.0128C13.5666 15.264 14.0761 15.577 15.0238 15.577C15.9716 15.577 16.4811 15.2642 16.8904 15.0128C17.0418 14.9198 17.1744 14.8385 17.3239 14.777C17.141 17.5391 14.8314 19.7307 12.018 19.7307ZM12.018 9.11536C14.5846 9.11536 16.7324 10.9395 17.2284 13.357C16.7596 13.468 16.4384 13.6646 16.1633 13.8334C15.8241 14.0418 15.579 14.1923 15.0238 14.1923C14.4687 14.1923 14.2236 14.0418 13.8844 13.8334C13.475 13.582 12.9658 13.2691 12.0178 13.2691C11.07 13.2691 10.5607 13.582 10.1514 13.8334C9.81219 14.0418 9.56709 14.1923 9.01211 14.1923C8.45695 14.1923 8.21184 14.0418 7.87261 13.8334C7.5976 13.6644 7.27654 13.4678 6.80779 13.357C7.30369 10.9395 9.4515 9.11536 12.018 9.11536Z" fill="#5E5E5E"/>
</svg>
