<svg width="20" height="20" viewBox="0 0 20 20" fill="none" xmlns="http://www.w3.org/2000/svg">
<path d="M18.1712 8.368H17.5V8.33341H9.99996V11.6667H14.7095C14.0225 13.6072 12.1762 15.0001 9.99996 15.0001C7.23871 15.0001 4.99996 12.7613 4.99996 10.0001C4.99996 7.23883 7.23871 5.00008 9.99996 5.00008C11.2745 5.00008 12.4341 5.48091 13.317 6.26633L15.6741 3.90925C14.1858 2.52216 12.195 1.66675 9.99996 1.66675C5.39788 1.66675 1.66663 5.398 1.66663 10.0001C1.66663 14.6022 5.39788 18.3334 9.99996 18.3334C14.602 18.3334 18.3333 14.6022 18.3333 10.0001C18.3333 9.44133 18.2758 8.89591 18.1712 8.368Z" fill="#FFC107"/>
<path d="M2.62744 6.12133L5.36536 8.12925C6.10619 6.29508 7.90036 5.00008 9.99994 5.00008C11.2745 5.00008 12.4341 5.48091 13.317 6.26633L15.6741 3.90925C14.1858 2.52216 12.1949 1.66675 9.99994 1.66675C6.79911 1.66675 4.02327 3.47383 2.62744 6.12133Z" fill="#FF3D00"/>
<path d="M10 18.3334C12.1525 18.3334 14.1084 17.5096 15.5871 16.17L13.008 13.9875C12.1432 14.6452 11.0865 15.0009 10 15C7.83255 15 5.99213 13.618 5.2988 11.6892L2.5813 13.783C3.96047 16.4817 6.7613 18.3334 10 18.3334Z" fill="#4CAF50"/>
<path d="M18.1712 8.36784H17.5V8.33325H10V11.6666H14.7096C14.3809 12.5901 13.7889 13.3971 13.0067 13.9878L13.0079 13.987L15.5871 16.1695C15.4046 16.3353 18.3333 14.1666 18.3333 9.99992C18.3333 9.44117 18.2758 8.89575 18.1712 8.36784Z" fill="#1976D2"/>
</svg>
